<?xml version="1.0" encoding="UTF-8"?><svg id="Gauge_SVG" xmlns="http://www.w3.org/2000/svg" viewBox="0 0 160 84"><defs><style>.cls-1{fill:#7b8794;}.cls-1,.cls-2,.cls-3,.cls-4{stroke-width:0px;}.cls-2{fill:#cdd6dc;}.cls-3{fill:#fff;}.cls-4{fill:#e5c230;}</style></defs><g id="gold-1"><path class="cls-4" d="M49.07,37.65s.04-.03.07-.05c0,0,0,0,0,0,0,0,.02-.01.03-.02,0,0,0,0,0,0,.03-.02.06-.04.09-.06,0,0,0,0,0,0l.03-.02s0,0,0,0c.04-.03.08-.06.13-.09,0,0,0,0,0,0,.01,0,.02-.01.03-.02,0,0,0,0,0,0,.03-.02.06-.04.1-.06,0,0,0,0,0,0,.01,0,.02-.01.03-.02,0,0,0,0,0,0,.04-.03.09-.06.13-.09h0s.02-.02.03-.02h0s.07-.04.1-.07h0s.02-.02.03-.02c0,0,0,0,0,0,.03-.02.07-.04.1-.07h0s.02-.01.03-.02c0,0,0,0,0,0,.04-.03.09-.06.13-.09,0,0,0,0,0,0,.01,0,.02-.01.03-.02,0,0,0,0,0,0,.03-.02.07-.04.1-.06h0s.02-.02.03-.02c0,0,0,0,0,0,.04-.03.09-.06.13-.09h0s.02-.02.03-.02h0s.09-.06.14-.09h0s.09-.06.13-.09h0s.09-.06.13-.09h0s.02-.02.03-.02h0s.09-.06.14-.09h0s.09-.06.14-.09h0c.06-.04.11-.07.17-.11h0c3.04-1.88,6.27-3.48,9.66-4.74l-5.44-14.54c-5.46,2.04-10.66,4.76-15.46,8.09l8.88,12.74h0Z"/><path class="cls-2" d="M55.07,18.12l4.74,12.67c-3.09,1.22-6.08,2.72-8.91,4.47l-.09.05-.11.07-.11.07-.03.02h0s-.08.05-.08.05l-.02.02h0s0,0,0,0l-.03.02-.08.05-.06.04-.14.09-.17.11-.05.03h0s-.09.06-.09.06l-.06.04h0s-.02.01-.02.01l-.05.04-.04.02h-.02s0,.02,0,.02l-.11.07h0s-.02.02-.02.02l-.04.03h0s-.07.05-.07.05l-.03.02h0s-.01.01-.01.01h0s-7.74-11.1-7.74-11.1c4.22-2.84,8.75-5.21,13.48-7.05M55.65,16.83c-5.46,2.04-10.66,4.76-15.46,8.09l8.88,12.74s.04-.03.07-.05c0,0,0,0,0,0,0,0,.02-.01.03-.02,0,0,0,0,0,0,.03-.02.06-.04.09-.06,0,0,0,0,0,0l.03-.02s0,0,0,0c.04-.03.08-.06.13-.09,0,0,0,0,0,0,.01,0,.02-.01.03-.02,0,0,0,0,0,0,.03-.02.06-.04.1-.06,0,0,0,0,0,0,.01,0,.02-.01.03-.02,0,0,0,0,0,0,.04-.03.09-.06.13-.09,0,0,0,0,0,0,.01,0,.02-.01.03-.02h0s.07-.04.1-.07h0s.02-.02.03-.02c0,0,0,0,0,0,.03-.02.07-.04.1-.07h0s.02-.01.03-.02c0,0,0,0,0,0,.04-.03.09-.06.13-.09,0,0,0,0,0,0,.01,0,.02-.01.03-.02,0,0,0,0,0,0,.03-.02.07-.04.1-.06h0s.02-.02.03-.02c0,0,0,0,0,0,.04-.03.09-.06.13-.09h0s.02-.02.03-.02h0s.09-.06.14-.09h0s.09-.06.13-.09h0s.09-.06.13-.09h0s.02-.02.03-.02h0s.09-.06.14-.09h0s.09-.06.14-.09h0c.06-.04.11-.07.17-.11h0c3.04-1.88,6.27-3.48,9.66-4.74l-5.44-14.54h0Z"/><path class="cls-4" d="M25.67,82.32s0-.05,0-.08c0,0,0,0,0,0,0-.01,0-.02,0-.04,0,0,0,0,0,0,0-.04,0-.08,0-.11,0,0,0,0,0,0v-.04s0,0,0,0c0-.05,0-.1,0-.15,0,0,0,0,0,0,0-.01,0-.02,0-.04,0,0,0,0,0,0,0-.04,0-.08,0-.12,0,0,0,0,0,0,0-.01,0-.02,0-.04,0,0,0,0,0,0,0-.05,0-.11,0-.16h0s0-.03,0-.04h0s0-.08,0-.12h0s0-.03,0-.04c0,0,0,0,0,0,0-.04,0-.08,0-.12h0s0-.03,0-.04c0,0,0,0,0,0,0-.05,0-.1,0-.16,0,0,0,0,0,0,0-.01,0-.02,0-.04,0,0,0,0,0,0,0-.04,0-.08,0-.12h0s0-.03,0-.04c0,0,0,0,0,0,0-.05,0-.11,0-.16h0s0-.03,0-.04h0c0-.05,0-.11,0-.16h0c0-.06,0-.11,0-.16h0c0-.06,0-.11,0-.16h0s0-.03,0-.04h0c0-.05,0-.11,0-.16h0c0-.06,0-.11,0-.16h0c0-.07,0-.14.01-.21h0c.19-3.57.72-7.13,1.62-10.64l-15.05-3.83c-1.44,5.65-2.18,11.47-2.18,17.31l15.53-.03h0Z"/><path class="cls-2" d="M13.04,66.25l13.11,3.33c-.76,3.23-1.24,6.54-1.41,9.86v.1s-.01.13-.01.13v.13s0,.04,0,.04h0s0,.1,0,.1v.03s0,.01,0,.01h0s0,.05,0,.05v.09s0,.07,0,.07v.16s-.01.21-.01.21v.06s0,0,0,0v.1s0,.08,0,.08h0s0,.03,0,.03v.06s0,.05,0,.05v.02s0,0,0,0v.13s0,0,0,0v.03s0,.05,0,.05h0s0,.09,0,.09v.03s0,0,0,0v.02s0,0,0,0l-13.53.02c.08-5.09.72-10.16,1.9-15.1M12.32,65.03c-1.44,5.65-2.18,11.47-2.18,17.31l15.53-.03s0-.05,0-.08c0,0,0,0,0,0,0-.01,0-.02,0-.04,0,0,0,0,0,0,0-.04,0-.08,0-.11,0,0,0,0,0,0v-.04s0,0,0,0c0-.05,0-.1,0-.15,0,0,0,0,0,0,0-.01,0-.02,0-.04,0,0,0,0,0,0,0-.04,0-.08,0-.12,0,0,0,0,0,0,0-.01,0-.02,0-.04,0,0,0,0,0,0,0-.05,0-.1,0-.16,0,0,0,0,0,0,0-.01,0-.03,0-.04h0s0-.08,0-.12h0s0-.03,0-.04c0,0,0,0,0,0,0-.04,0-.08,0-.12h0s0-.03,0-.04c0,0,0,0,0,0,0-.05,0-.1,0-.16,0,0,0,0,0,0,0-.01,0-.03,0-.04,0,0,0,0,0,0,0-.04,0-.08,0-.12h0s0-.03,0-.04c0,0,0,0,0,0,0-.05,0-.11,0-.16h0s0-.03,0-.04h0c0-.05,0-.11,0-.16h0c0-.06,0-.11,0-.16h0c0-.06,0-.11,0-.16h0s0-.03,0-.04h0c0-.05,0-.11,0-.16h0c0-.06,0-.11,0-.16h0c0-.07,0-.14.01-.21h0c.19-3.57.72-7.13,1.62-10.64l-15.05-3.83h0Z"/><path class="cls-4" d="M28.48,65.14s.02-.05.03-.08c0,0,0,0,0,0,0-.01,0-.02.01-.03,0,0,0,0,0,0,.01-.04.02-.07.04-.11,0,0,0,0,0,0v-.03s.01,0,.01,0c.02-.05.03-.1.05-.15,0,0,0,0,0,0,0-.01,0-.02.01-.03,0,0,0,0,0,0,.01-.04.02-.07.04-.11,0,0,0,0,0,0,0-.01,0-.02.01-.03,0,0,0,0,0,0,.02-.05.03-.1.05-.15h0s0-.03.01-.04h0s.03-.08.04-.11h0s0-.03.01-.04c0,0,0,0,0,0,.01-.04.03-.07.04-.11h0s0-.02.01-.04c0,0,0,0,0,0,.02-.05.04-.1.05-.15,0,0,0,0,0,0,0-.01,0-.02.01-.04,0,0,0,0,0,0,.01-.04.03-.07.04-.11h0s0-.03.01-.04c0,0,0,0,0,0,.02-.05.04-.1.06-.15h0s0-.03.01-.04h0c.02-.05.04-.1.06-.15h0c.02-.05.04-.1.06-.15h0c.02-.05.04-.1.06-.15h0s0-.03.01-.04h0c.02-.05.04-.1.06-.15h0c.02-.05.04-.1.06-.15h0c.02-.07.05-.13.07-.19h0c1.3-3.33,2.94-6.54,4.89-9.58l-13.07-8.38c-3.15,4.9-5.69,10.2-7.53,15.74l14.75,4.88h0Z"/><path class="cls-2" d="M21.57,45.91l11.39,7.3c-1.74,2.82-3.24,5.82-4.45,8.92l-.04.09-.05.12-.05.13v.03s-.01,0-.01,0l-.03.09v.03s-.01.01-.01.01h0s-.01.04-.01.04l-.03.09-.02.06-.06.15-.07.19-.02.05h0s-.04.1-.04.1l-.03.07h0s0,.02,0,.02l-.02.06-.02.04v.02s0,0,0,0l-.04.12h0s0,.03,0,.03l-.02.05h0s-.03.08-.03.08v.03s-.01,0-.01,0v.02s0,0,0,0l-12.85-4.25c1.68-4.81,3.88-9.41,6.57-13.72M21.26,44.52c-3.15,4.9-5.69,10.2-7.53,15.74l14.75,4.88s.02-.05.03-.08c0,0,0,0,0,0,0-.01,0-.02.01-.03,0,0,0,0,0,0,.01-.04.02-.07.04-.11,0,0,0,0,0,0v-.03s.01,0,.01,0c.02-.05.03-.1.05-.15,0,0,0,0,0,0,0-.01,0-.02.01-.03,0,0,0,0,0,0,.01-.04.02-.07.04-.11,0,0,0,0,0,0,0-.01,0-.02.01-.03,0,0,0,0,0,0,.02-.05.03-.1.05-.15,0,0,0,0,0,0,0-.01,0-.02.01-.04h0s.03-.08.04-.11h0s0-.03.01-.04c0,0,0,0,0,0,.01-.04.03-.07.04-.11h0s0-.02.01-.04c0,0,0,0,0,0,.02-.05.04-.1.05-.15,0,0,0,0,0,0,0-.01,0-.02.01-.04,0,0,0,0,0,0,.01-.04.03-.07.04-.11h0s0-.03.01-.04c0,0,0,0,0,0,.02-.05.04-.1.05-.15h0s0-.03.01-.04h0c.02-.05.04-.1.06-.15h0c.02-.05.04-.1.06-.15h0c.02-.05.04-.1.06-.15h0s0-.03.01-.04h0c.02-.05.04-.1.06-.15h0c.02-.05.04-.1.06-.15h0c.02-.07.05-.13.07-.19h0c1.3-3.33,2.94-6.54,4.89-9.58l-13.07-8.38h0Z"/><path class="cls-4" d="M64.81,30.14s.05-.02.08-.02c0,0,0,0,0,0,.01,0,.02,0,.03,0,0,0,0,0,0,0,.04-.01.07-.02.11-.03,0,0,0,0,0,0h.03s0-.01,0-.01c.05-.01.1-.03.15-.04,0,0,0,0,0,0,.01,0,.02,0,.03,0,0,0,0,0,0,0,.04-.01.07-.02.11-.03,0,0,0,0,0,0,.01,0,.02,0,.04-.01,0,0,0,0,0,0,.05-.01.1-.03.15-.04h0s.02,0,.04-.01h0s.08-.02.12-.03h0s.02,0,.04-.01c0,0,0,0,0,0,.04-.01.08-.02.11-.03h0s.02,0,.04-.01c0,0,0,0,0,0,.05-.01.1-.03.15-.04,0,0,0,0,0,0,.01,0,.02,0,.04,0,0,0,0,0,0,0,.04-.01.08-.02.11-.03h0s.02,0,.04-.01c0,0,0,0,0,0,.05-.01.1-.03.15-.04h0s.03,0,.04-.01h0c.05-.01.1-.03.16-.04h0c.05-.01.1-.03.15-.04h0c.05-.01.1-.03.15-.04h0s.03,0,.04-.01h0c.05-.01.1-.03.16-.04h0c.05-.01.1-.03.16-.04h0c.07-.02.13-.03.2-.05h0c3.48-.83,7.05-1.32,10.66-1.44l-.57-15.51c-5.82.21-11.62,1.14-17.23,2.79l4.4,14.89h0Z"/><path class="cls-2" d="M76.67,13.5l.5,13.52c-3.31.18-6.63.66-9.86,1.43l-.1.02-.13.03-.13.03h-.03s0,0,0,0l-.09.02h-.03s-.01,0-.01,0h0s-.04.01-.04.01l-.09.02-.06.02-.16.04-.2.05h-.06s0,.02,0,.02l-.1.03-.07.02h0s-.02,0-.02,0l-.06.02h-.05s-.02.02-.02.02h0s-.13.03-.13.03h0s-.03,0-.03,0h-.05s0,.01,0,.01l-.08.02h-.03s0,0,0,0h-.02s0,0,0,0l-3.84-12.98c4.9-1.36,9.95-2.18,15.02-2.43M77.64,12.46c-5.83.21-11.62,1.14-17.23,2.79l4.4,14.89s.05-.02.08-.02c0,0,0,0,0,0,.01,0,.02,0,.03,0,0,0,0,0,0,0,.04-.01.07-.02.11-.03,0,0,0,0,0,0h.03s0-.01,0-.01c.05-.01.1-.03.15-.04,0,0,0,0,0,0,.01,0,.02,0,.03,0,0,0,0,0,0,0,.04-.01.07-.02.11-.03,0,0,0,0,0,0,.01,0,.02,0,.04-.01,0,0,0,0,0,0,.05-.01.1-.03.15-.04,0,0,0,0,0,0,.01,0,.02,0,.04-.01h0s.08-.02.12-.03h0s.02,0,.04-.01c0,0,0,0,0,0,.04-.01.08-.02.11-.03h0s.02,0,.04-.01c0,0,0,0,0,0,.05-.01.1-.03.15-.04,0,0,0,0,0,0,.01,0,.02,0,.04,0,0,0,0,0,0,0,.04-.01.08-.02.11-.03h0s.02,0,.04-.01c0,0,0,0,0,0,.05-.01.1-.03.15-.04h0s.03,0,.04-.01h0c.05-.01.1-.03.16-.04h0c.05-.01.1-.03.15-.04h0c.05-.01.1-.03.15-.04h0s.03,0,.04-.01h0c.05-.01.1-.03.16-.04h0c.05-.01.1-.03.16-.04h0c.07-.02.13-.03.2-.05h0c3.48-.83,7.05-1.32,10.66-1.44l-.57-15.51h0Z"/><path class="cls-4" d="M36.53,49.73s.03-.04.05-.06c0,0,0,0,0,0,0,0,.01-.02.02-.03,0,0,0,0,0,0,.02-.03.05-.06.07-.09,0,0,0,0,0,0l.02-.03s0,0,0,0c.03-.04.06-.08.09-.12,0,0,0,0,0,0,0,0,.01-.02.02-.03,0,0,0,0,0,0,.02-.03.05-.06.07-.09,0,0,0,0,0,0,0,0,.01-.02.02-.03,0,0,0,0,0,0,.03-.04.06-.08.1-.12h0s.02-.02.02-.03h0s.05-.06.07-.1h0s.02-.02.02-.03c0,0,0,0,0,0,.02-.03.05-.06.07-.09h0s.02-.02.02-.03c0,0,0,0,0,0,.03-.04.06-.08.1-.12,0,0,0,0,0,0,0,0,.02-.02.02-.03,0,0,0,0,0,0,.02-.03.05-.06.07-.09h0s.02-.02.02-.03c0,0,0,0,0,0,.03-.04.07-.08.1-.12h0s.02-.02.03-.03h0s.07-.08.1-.13h0s.07-.08.1-.13h0s.07-.09.1-.13h0s.02-.02.02-.03h0s.07-.08.1-.13h0s.07-.08.1-.13h0c.04-.05.09-.11.13-.16h0c2.29-2.75,4.86-5.28,7.68-7.54l-9.75-12.08c-4.54,3.65-8.62,7.87-12.13,12.55l12.45,9.29h0Z"/><path class="cls-2" d="M36.06,29.3l8.49,10.53c-2.55,2.13-4.91,4.49-7.04,7.05l-.06.08-.08.1-.09.1-.02.03h0s-.06.08-.06.08l-.02.02h0s0,.01,0,.01l-.02.03-.06.07-.04.05-.1.13-.13.16-.04.05h0s-.06.08-.06.08l-.05.06h0s-.02.02-.02.02l-.04.05-.03.04v.02s-.02,0-.02,0l-.08.1h0s-.02.02-.02.02l-.03.04h0s-.05.07-.05.07l-.02.02h0s-.01.02-.01.02h0s-10.84-8.09-10.84-8.09c3.11-4.03,6.66-7.7,10.57-10.94M36.21,27.89c-4.54,3.65-8.62,7.87-12.13,12.55l12.45,9.29s.03-.04.05-.06c0,0,0,0,0,0,0,0,.01-.02.02-.03,0,0,0,0,0,0,.02-.03.05-.06.07-.09,0,0,0,0,0,0l.02-.03s0,0,0,0c.03-.04.06-.08.09-.12,0,0,0,0,0,0,0,0,.01-.02.02-.03,0,0,0,0,0,0,.02-.03.05-.06.07-.09,0,0,0,0,0,0,0,0,.01-.02.02-.03,0,0,0,0,0,0,.03-.04.06-.08.1-.12,0,0,0,0,0,0,0-.01.02-.02.02-.03h0s.05-.06.07-.1h0s.02-.02.02-.03c0,0,0,0,0,0,.02-.03.05-.06.07-.09h0s.02-.02.02-.03c0,0,0,0,0,0,.03-.04.06-.08.1-.12,0,0,0,0,0,0,0,0,.02-.02.02-.03,0,0,0,0,0,0,.02-.03.05-.06.07-.09h0s.02-.02.02-.03c0,0,0,0,0,0,.03-.04.07-.08.1-.12h0s.02-.02.03-.03h0s.07-.08.1-.13h0s.07-.08.1-.13h0s.07-.09.1-.13h0s.02-.02.02-.03h0s.07-.08.1-.13h0s.07-.08.1-.13h0c.04-.05.09-.11.13-.16h0c2.29-2.75,4.86-5.28,7.68-7.54l-9.75-12.08h0Z"/><path class="cls-3" d="M123.73,49.72l12.45-9.31c-3.5-4.65-7.57-8.87-12.1-12.52l-9.77,12.08h0s0,.01.01.02c.01.01.03.02.04.03,0,0,0,0,.01.01,0,0,.01.01.02.02,0,0,.01,0,.02.01,0,0,.01.01.02.02,0,0,.01,0,.02.01l.03.03s.01.01.02.02c0,0,.01,0,.02.01,0,0,.01,0,.02.02,0,0,.01,0,.02.02,0,0,.01,0,.02.02,0,0,.01,0,.02.01,0,0,.02.01.03.02,0,0,.02.01.02.02,0,0,.01.01.02.02,0,0,.01,0,.02.01,0,0,.01.01.02.02,0,0,.01,0,.02.01,0,0,.02.02.03.02,0,0,0,0,.01.01,0,0,.02.02.03.02,0,0,.01,0,.02.01,0,0,.01.01.02.02,0,0,.01,0,.02.01,0,0,.02.01.02.02,0,0,0,0,.01.01.01,0,.02.02.03.03,0,0,0,0,.01.01,0,0,.01.01.02.02,0,0,.01,0,.02.01,0,0,.02.01.02.02,0,0,0,0,.01.01.01,0,.02.02.04.03,0,0,0,0,0,0,0,0,.02.02.03.02,0,0,0,0,.01.01,0,0,.02.01.03.02,0,0,0,0,.01.01.01,0,.02.02.04.03,0,0,0,0,0,0,.01,0,.02.02.03.03,0,0,0,0,.01.01,0,0,.02.02.03.02,0,0,0,0,.01,0,.01,0,.02.02.03.03,0,0,0,0,0,0,.01,0,.03.02.04.03,0,0,0,0,0,0,.01,0,.02.02.03.02,0,0,0,0,.01,0,.01,0,.02.02.03.03,0,0,0,0,0,0,.01.01.02.02.04.03,0,0,0,0,0,0,.01,0,.02.02.03.03h0s.02.03.03.03c0,0,0,0,0,0,.02.02.05.04.08.06,0,0,0,0,0,0,.01,0,.02.02.03.03,0,0,0,0,0,0,.03.02.05.04.08.07,0,0,0,0,0,0,.01.01.02.02.03.03,0,0,0,0,0,0,.04.03.08.07.12.1,0,0,0,0,0,0,.01.01.02.02.03.03,0,0,0,0,0,0,.03.02.05.04.08.07,0,0,0,0,0,0,.01.01.02.02.04.03,0,0,0,0,0,0,.04.03.08.07.12.1,0,0,0,0,0,0,2.79,2.46,5.32,5.2,7.55,8.17h0Z"/><path class="cls-2" d="M124.22,29.31c3.9,3.24,7.45,6.9,10.55,10.91l-10.85,8.11c-2.12-2.72-4.5-5.25-7.09-7.53l-.1-.09h0s-.02-.02-.02-.02h0s0,0,0,0h0s-.09-.08-.09-.08h0s-.03-.02-.03-.02l-.1-.08h0s-.03-.03-.03-.03l-.05-.04-.02-.02h0s-.01-.01-.01-.01l-.03-.02-.04-.03-.03-.03-.02-.02-.06-.05h0s-.04-.03-.04-.03h0s-.04-.04-.04-.04h0s-.04-.03-.04-.03h0s-.03-.03-.03-.03h-.01s0-.02,0-.02l-.04-.05-.11-.08h0s-.05-.04-.05-.04h0s-.01,0-.02-.01l-.04-.03h0s-.06-.05-.06-.05l8.51-10.52M124.08,27.9l-9.77,12.08s0,0,0,0c0,0,0,0,.01,0,.01.01.03.02.04.03,0,0,0,0,.01.01,0,0,.01.01.02.02,0,0,.01,0,.02.01,0,0,.01.01.02.02,0,0,.01,0,.02.01.01,0,.02.02.03.03,0,0,.01.01.02.02,0,0,.01,0,.02.01,0,0,.01,0,.02.02,0,0,.01,0,.02.02,0,0,.01,0,.02.02,0,0,.01,0,.02.01,0,0,.02.01.03.02,0,0,.02.01.02.02,0,0,.01.01.02.02,0,0,.01,0,.02.01,0,0,.01.01.02.02,0,0,.01,0,.02.01,0,0,.02.02.03.02,0,0,0,0,.02.01,0,0,.02.02.03.02,0,0,.01,0,.02.01,0,0,.01.01.02.02,0,0,.01,0,.02.01,0,0,.02.01.02.02,0,0,0,0,.01.01.01,0,.02.02.03.03,0,0,0,0,.01.01,0,0,.01.01.02.02,0,0,.01,0,.02.01,0,0,.02.01.02.02,0,0,0,0,.01.01.01,0,.02.02.04.03,0,0,0,0,0,0,0,0,.02.02.03.02,0,0,0,0,.01.01,0,0,.02.01.03.02,0,0,0,0,.01.01.01,0,.02.02.04.03,0,0,0,0,0,0,.01,0,.02.02.03.03,0,0,0,0,.01.01,0,0,.02.02.03.02,0,0,0,0,.01,0,.01,0,.02.02.03.03,0,0,0,0,0,0,.01,0,.03.02.04.03,0,0,0,0,0,0,.01,0,.02.02.03.02,0,0,0,0,.01,0,.01,0,.02.02.03.03,0,0,0,0,0,0,.01.01.02.02.04.03,0,0,0,0,0,0,.01,0,.02.02.03.03,0,0,0,0,0,0,.01,0,.02.02.03.03,0,0,0,0,0,0,.02.02.05.04.08.06,0,0,0,0,0,0,.01,0,.02.02.03.03,0,0,0,0,0,0,.03.02.05.04.08.07,0,0,0,0,0,0,.01.01.02.02.03.03,0,0,0,0,0,0,.04.03.08.07.11.1,0,0,0,0,0,0,.01.01.02.02.03.03,0,0,0,0,0,0,.03.02.05.04.08.07,0,0,0,0,0,0,.01.01.02.02.04.03,0,0,0,0,0,0,.04.03.08.07.12.1,0,0,0,0,0,0,2.79,2.46,5.32,5.2,7.55,8.17l12.45-9.31c-3.5-4.65-7.57-8.87-12.1-12.52h0Z"/><path class="cls-3" d="M134.64,82.29h15.54c-.01-5.82-.75-11.63-2.19-17.27l-15.06,3.82h0s0,.02,0,.02c0,.02,0,.04.01.05,0,0,0,.01,0,.02,0,0,0,.02,0,.03,0,0,0,.01,0,.02,0,0,0,.02,0,.03,0,0,0,.01,0,.02v.04s.01.02.02.02c0,0,0,.02,0,.02,0,0,0,.02,0,.02,0,0,0,.02,0,.02,0,0,0,.01,0,.02,0,0,0,.01,0,.02,0,0,0,.02,0,.03,0,.01,0,.02,0,.03,0,0,0,.02,0,.03,0,0,0,.01,0,.02,0,0,0,.02,0,.03,0,0,0,.01,0,.02,0,.01,0,.02,0,.04,0,0,0,.01,0,.02,0,.01,0,.02,0,.04,0,0,0,.01,0,.02,0,0,0,.02,0,.03,0,0,0,.01,0,.02,0,0,0,.02,0,.03,0,0,0,.01,0,.02,0,.01,0,.03.01.04,0,0,0,.01,0,.02,0,0,0,.02,0,.03,0,0,0,.01,0,.02,0,.01,0,.02,0,.03,0,0,0,.01,0,.02,0,.01,0,.03.01.05,0,0,0,0,0,.01,0,.01,0,.02,0,.03,0,0,0,.01,0,.02,0,.01,0,.02,0,.03,0,0,0,.01,0,.02,0,.01,0,.03.01.05,0,0,0,0,0,0,0,.01,0,.03,0,.04,0,0,0,.01,0,.02,0,.01,0,.02,0,.03,0,0,0,0,0,.01,0,.01,0,.03,0,.04,0,0,0,0,0,0,0,.01,0,.03.01.05,0,0,0,0,0,.01,0,.01,0,.02,0,.04,0,0,0,0,0,.01,0,.01,0,.03,0,.04,0,0,0,0,0,0,0,.02,0,.03.01.05,0,0,0,0,0,0,0,.01,0,.03,0,.04h0s0,.04,0,.05c0,0,0,0,0,0,0,.03.01.07.02.1,0,0,0,0,0,.01,0,.01,0,.03,0,.04,0,0,0,0,0,0,0,.03.01.07.02.1,0,0,0,0,0,0,0,.02,0,.03,0,.04,0,0,0,0,0,0,.01.05.02.1.03.15,0,0,0,0,0,0,0,.02,0,.03,0,.05,0,0,0,0,0,0,0,.03.01.07.02.1,0,0,0,0,0,0,0,.02,0,.03.01.05,0,0,0,0,0,0,.01.05.02.1.03.15,0,0,0,0,0,0,.76,3.64,1.15,7.35,1.16,11.07h0Z"/><path class="cls-2" d="M147.26,66.24c1.19,4.93,1.83,9.99,1.91,15.06h-13.54c-.07-3.45-.46-6.9-1.17-10.28l-.03-.13h0s0-.03,0-.03h0s0,0,0,0h0s-.02-.12-.02-.12h0s0-.04,0-.04l-.03-.13h0s0-.05,0-.05v-.06s-.02-.03-.02-.03h0s0-.02,0-.02v-.04s-.02-.05-.02-.05v-.04s-.01-.02-.01-.02l-.02-.08h0s-.01-.05-.01-.05h0s-.01-.06-.01-.06h0s-.01-.05-.01-.05h0s0-.04,0-.04v-.02s0-.01,0-.01v-.06s-.05-.13-.05-.13h0s-.01-.06-.01-.06h0s0-.01,0-.02v-.05s-.01,0-.01,0l-.02-.07,13.12-3.33M147.98,65.02l-15.06,3.82s0,0,0,.01c0,0,0,.01,0,.01,0,.02,0,.04.01.05,0,0,0,.01,0,.02,0,0,0,.02,0,.03,0,0,0,.01,0,.02,0,0,0,.02,0,.03,0,0,0,.01,0,.02,0,.01,0,.03.01.04,0,0,0,.02,0,.02,0,0,0,.02,0,.02,0,0,0,.02,0,.02,0,0,0,.02,0,.02,0,0,0,.01,0,.02,0,0,0,.01,0,.02,0,0,0,.02,0,.03,0,.01,0,.02,0,.03,0,0,0,.02,0,.03,0,0,0,.01,0,.02,0,0,0,.02,0,.03,0,0,0,.01,0,.02,0,.01,0,.02,0,.04,0,0,0,.01,0,.02,0,.01,0,.02,0,.04,0,0,0,.01,0,.02,0,0,0,.02,0,.03,0,0,0,.01,0,.02,0,0,0,.02,0,.03,0,0,0,.01,0,.02,0,.01,0,.03.01.04,0,0,0,.01,0,.02,0,0,0,.02,0,.03,0,0,0,.01,0,.02,0,.01,0,.02,0,.03,0,0,0,.01,0,.02,0,.01,0,.03.01.05,0,0,0,0,0,.01,0,.01,0,.02,0,.03,0,0,0,.01,0,.02,0,.01,0,.02,0,.03,0,0,0,.01,0,.02,0,.01,0,.03.01.05,0,0,0,0,0,0,0,.01,0,.03.01.04,0,0,0,.01,0,.02,0,.01,0,.02,0,.03,0,0,0,0,0,.01,0,.02,0,.03,0,.04,0,0,0,0,0,0,0,.01,0,.03.01.05,0,0,0,0,0,.01,0,.01,0,.02,0,.04,0,0,0,0,0,.01,0,.01,0,.03,0,.04,0,0,0,0,0,0,0,.02,0,.03.01.05,0,0,0,0,0,0,0,.01,0,.03,0,.04,0,0,0,0,0,.01,0,.01,0,.03,0,.04,0,0,0,0,0,0,0,.03.01.07.02.1,0,0,0,0,0,.01,0,.01,0,.03,0,.04,0,0,0,0,0,0,0,.03.01.07.02.1,0,0,0,0,0,0,0,.02,0,.03,0,.04,0,0,0,0,0,0,.01.05.02.1.03.15,0,0,0,0,0,0,0,.02,0,.03,0,.05,0,0,0,0,0,0,0,.03.01.07.02.1,0,0,0,0,0,0,0,.02,0,.03.01.05,0,0,0,0,0,0,.01.05.02.1.03.15,0,0,0,0,0,0,.76,3.64,1.15,7.35,1.16,11.07h15.54c-.01-5.82-.75-11.63-2.19-17.27h0Z"/><path class="cls-3" d="M131.75,65.13l14.76-4.88c-1.84-5.52-4.37-10.81-7.51-15.71l-13.09,8.36h0s0,.02,0,.02c0,.02.02.03.03.05,0,0,0,0,0,.01,0,0,0,.02.01.02,0,0,0,.01.01.02,0,0,0,.01.01.02,0,0,0,.01.01.02l.02.04s0,.01.01.02c0,0,0,.01.01.02,0,0,0,.01.01.02,0,0,0,.01.01.02,0,0,0,.01.01.02,0,0,0,.01.01.02,0,0,.01.02.02.03,0,0,.01.02.02.03,0,0,0,.01.01.02,0,0,0,.01.01.02,0,0,0,.02.01.02,0,0,0,.01.01.02,0,.01.01.02.02.03,0,0,0,.01.01.02,0,.01.01.02.02.03,0,0,0,.01.01.02,0,0,0,.02.01.02,0,0,0,.01.01.02,0,0,.01.02.02.03,0,0,0,0,0,.01,0,.01.02.03.02.04,0,0,0,.01,0,.02,0,0,0,.02.02.02,0,0,0,.01.01.02,0,0,.01.02.02.03,0,0,0,0,0,.01,0,.01.02.03.02.04,0,0,0,0,0,.01,0,.01.01.02.02.03,0,0,0,0,0,.01,0,.01.01.02.02.03,0,0,0,0,0,.01,0,.01.02.03.02.04,0,0,0,0,0,0,0,.01.02.03.02.04,0,0,0,0,0,.01,0,0,.01.02.02.03,0,0,0,0,0,.01,0,.01.01.02.02.04,0,0,0,0,0,0,0,.01.02.03.03.04,0,0,0,0,0,0,0,.01.01.02.02.03,0,0,0,0,0,.01,0,.01.01.02.02.04,0,0,0,0,0,0,0,.01.02.03.03.04,0,0,0,0,0,0,0,.01.01.02.02.03h0s.01.03.02.04c0,0,0,0,0,0,.02.03.03.06.05.08,0,0,0,0,0,.01,0,.01.01.02.02.03,0,0,0,0,0,0,.02.03.03.06.05.09,0,0,0,0,0,0,0,.01.02.03.02.04,0,0,0,0,0,0,.03.04.05.09.08.13,0,0,0,0,0,0,0,.01.02.03.02.04,0,0,0,0,0,0,.02.03.03.06.05.09,0,0,0,0,0,0,0,.01.02.03.03.04,0,0,0,0,0,0,.03.05.05.09.08.14,0,0,0,0,0,0,1.87,3.22,3.4,6.62,4.58,10.15h0Z"/><path class="cls-2" d="M138.68,45.92c2.68,4.31,4.88,8.91,6.55,13.69l-12.86,4.26c-1.15-3.25-2.6-6.4-4.34-9.39l-.07-.11h0s-.01-.02-.01-.02h0s0,0,0,0h0s-.06-.11-.06-.11h0s-.02-.03-.02-.03l-.07-.11h0s-.02-.04-.02-.04l-.03-.06-.02-.02h0s0-.02,0-.02l-.02-.03-.03-.04-.02-.03v-.02s-.06-.07-.06-.07h0s-.02-.04-.02-.04h0s-.03-.05-.03-.05h0s-.02-.04-.02-.04h0s-.02-.04-.02-.04v-.02s-.02,0-.02,0l-.02-.06-.08-.11h0s-.03-.06-.03-.06h0s0-.01-.01-.02l-.03-.04h0s-.04-.07-.04-.07l11.41-7.28M138.99,44.54l-13.09,8.36s0,0,0,0c0,0,0,0,0,.01.01.02.02.03.03.05,0,0,0,0,0,.01,0,0,.01.02.01.02,0,0,0,.01.01.02,0,0,0,.01.01.02,0,0,0,.01.01.02,0,.01.02.02.02.04,0,0,0,.01.01.02,0,0,0,.01.01.02,0,0,0,.01.01.02,0,0,0,.01.01.02,0,0,0,.01.01.02,0,0,0,.01.01.02,0,0,.01.02.02.03,0,0,.01.02.02.03,0,0,0,.01.01.02,0,0,0,.01.01.02,0,0,0,.02.01.02,0,0,0,.01.01.02,0,.01.01.02.02.03,0,0,0,.01.01.02,0,.01.01.02.02.03,0,0,0,.01.01.02,0,0,0,.02.01.02,0,0,0,.01.01.02,0,0,.01.02.02.03,0,0,0,0,0,.01,0,.01.02.03.02.04,0,0,0,.01,0,.02,0,0,0,.02.02.02,0,0,0,.01.01.02,0,0,.01.02.02.03,0,0,0,0,0,.01,0,.01.02.03.02.04,0,0,0,0,0,.01,0,.01.01.02.02.03,0,0,0,0,0,.01,0,.01.01.02.02.03,0,0,0,0,0,.01,0,.01.02.03.02.04,0,0,0,0,0,0,0,.01.02.03.02.04,0,0,0,0,0,.01,0,0,.01.02.02.03,0,0,0,0,0,.01,0,.01.01.02.02.04,0,0,0,0,0,0,0,.01.02.03.03.04,0,0,0,0,0,0,0,.01.01.02.02.03,0,0,0,0,0,.01,0,.01.01.02.02.04,0,0,0,0,0,0,0,.01.02.03.03.04,0,0,0,0,0,0,0,.01.01.02.02.04,0,0,0,0,0,.01,0,.01.01.02.02.03,0,0,0,0,0,0,.02.03.03.06.05.08,0,0,0,0,0,.01,0,.01.01.02.02.03,0,0,0,0,0,0,.02.03.03.06.05.09,0,0,0,0,0,0,0,.01.02.03.02.04,0,0,0,0,0,0,.03.04.05.09.08.13,0,0,0,0,0,0,0,.01.01.03.02.04,0,0,0,0,0,0,.02.03.03.06.05.09,0,0,0,0,0,0,0,.01.02.03.03.04,0,0,0,0,0,0,.03.05.05.09.08.14,0,0,0,0,0,0,1.87,3.22,3.4,6.62,4.58,10.15l14.76-4.88c-1.84-5.52-4.37-10.81-7.51-15.71h0Z"/><path class="cls-3" d="M111.16,37.69l8.91-12.74c-4.78-3.33-9.96-6.05-15.41-8.1l-5.5,14.53h0s.01,0,.01,0c.02,0,.03.01.05.02,0,0,.01,0,.02,0,0,0,.02,0,.03,0,0,0,.01,0,.02,0,0,0,.02,0,.02,0,0,0,.01,0,.02,0l.04.02s.02,0,.02,0c0,0,.01,0,.02,0,0,0,.01,0,.02,0,0,0,.01,0,.02,0,0,0,.01,0,.02,0,0,0,.01,0,.02,0,0,0,.02,0,.03.01,0,0,.02,0,.03.01,0,0,.02,0,.02,0,0,0,.01,0,.02,0,0,0,.02,0,.03,0,0,0,.01,0,.02,0,.01,0,.02,0,.03.01,0,0,.01,0,.02,0,.01,0,.02,0,.03.01,0,0,.01,0,.02,0,0,0,.02,0,.03.01,0,0,.01,0,.02,0,0,0,.02,0,.03.01,0,0,.01,0,.02,0,.01,0,.03.01.04.02,0,0,.01,0,.02,0,0,0,.02,0,.03.01,0,0,.01,0,.02,0,0,0,.02,0,.03.01,0,0,.01,0,.02,0,.01,0,.03.01.04.02,0,0,0,0,.01,0,.01,0,.02,0,.03.01,0,0,.01,0,.02,0,.01,0,.02,0,.03.01,0,0,.01,0,.02,0,.01,0,.03.01.04.02,0,0,0,0,0,0,.01,0,.03.01.04.02,0,0,0,0,.01,0,0,0,.02,0,.03.01,0,0,0,0,.01,0,.01,0,.03.01.04.02,0,0,0,0,0,0,.01,0,.03.01.05.02,0,0,0,0,.01,0,.01,0,.02,0,.04.01,0,0,0,0,.01,0,.01,0,.03.01.04.02,0,0,0,0,0,0,.02,0,.03.01.05.02,0,0,0,0,0,0,.01,0,.03.01.04.02h.01s.02.01.04.02c0,0,0,0,0,0,.03.01.06.03.09.04,0,0,0,0,.01,0,.01,0,.02.01.04.02,0,0,0,0,0,0,.03.01.06.03.09.04,0,0,0,0,0,0,.01,0,.03.01.04.02,0,0,0,0,0,0,.05.02.09.04.14.06,0,0,0,0,0,0,.02,0,.03.01.04.02,0,0,0,0,0,0,.03.01.06.03.1.04,0,0,0,0,0,0,.02,0,.03.01.05.02,0,0,0,0,0,0,.05.02.1.04.14.06,0,0,0,0,0,0,3.42,1.46,6.68,3.27,9.73,5.4h0Z"/><path class="cls-2" d="M105.23,18.15c4.72,1.85,9.23,4.22,13.44,7.06l-7.76,11.1c-2.86-1.92-5.92-3.57-9.09-4.93l-.12-.05h0s-.03-.01-.03-.01h0s0,0,0,0h0s-.11-.05-.11-.05h0s-.03-.01-.03-.01l-.12-.05h0s-.04-.02-.04-.02l-.06-.03h-.03s0,0,0,0h-.02s-.03-.02-.03-.02l-.05-.02-.03-.02h-.02s-.08-.04-.08-.04h0s-.04-.02-.04-.02h0s-.05-.02-.05-.02h0s-.04-.02-.04-.02h0s-.03-.02-.03-.02h-.02s0-.01,0-.01l-.05-.03-.13-.04h0s-.06-.03-.06-.03h0s-.01,0-.02,0l-.05-.02h0s-.07-.03-.07-.03l4.79-12.66M104.65,16.86l-5.5,14.53s0,0,0,0c0,0,.01,0,.01,0,.02,0,.03.01.05.02,0,0,.01,0,.02,0,0,0,.02,0,.03,0,0,0,.01,0,.02,0,0,0,.02,0,.02,0,0,0,.01,0,.02,0,.01,0,.03.01.04.02,0,0,.02,0,.02,0,0,0,.01,0,.02,0,0,0,.01,0,.02,0,0,0,.01,0,.02,0,0,0,.01,0,.02,0,0,0,.01,0,.02,0,0,0,.02,0,.03.01,0,0,.02,0,.03.01,0,0,.02,0,.02,0,0,0,.01,0,.02,0,0,0,.02,0,.03,0,0,0,.01,0,.02,0,.01,0,.02,0,.03.01,0,0,.01,0,.02,0,.01,0,.02,0,.03.01,0,0,.01,0,.02,0,0,0,.02,0,.03.01,0,0,.01,0,.02,0,0,0,.02,0,.03.01,0,0,.01,0,.02,0,.01,0,.03.01.04.02,0,0,.01,0,.02,0,0,0,.02,0,.03.01,0,0,.01,0,.02,0,0,0,.02,0,.03.01,0,0,.01,0,.02,0,.01,0,.03.01.04.02,0,0,0,0,.01,0,.01,0,.02,0,.03.01,0,0,.01,0,.02,0,.01,0,.02,0,.03.01,0,0,.01,0,.02,0,.01,0,.03.01.04.02,0,0,0,0,0,0,.01,0,.03.01.04.02,0,0,0,0,.01,0,0,0,.02,0,.03.01,0,0,0,0,.01,0,.01,0,.03.01.04.02,0,0,0,0,0,0,.01,0,.03.01.05.02,0,0,0,0,.01,0,.01,0,.02,0,.04.01,0,0,0,0,.01,0,.01,0,.03.01.04.02,0,0,0,0,0,0,.02,0,.03.01.05.02,0,0,0,0,0,0,.01,0,.03.01.04.02,0,0,0,0,.01,0,.01,0,.02,0,.04.01,0,0,0,0,0,0,.03.01.06.03.09.04,0,0,0,0,.01,0,.01,0,.02.01.04.02,0,0,0,0,0,0,.03.01.06.03.09.04,0,0,0,0,0,0,.01,0,.03.01.04.02,0,0,0,0,0,0,.05.02.09.04.14.06,0,0,0,0,0,0,.02,0,.03.01.04.02,0,0,0,0,0,0,.03.01.06.03.1.04,0,0,0,0,0,0,.02,0,.03.01.05.02,0,0,0,0,0,0,.05.02.1.04.14.06,0,0,0,0,0,0,3.42,1.46,6.68,3.27,9.73,5.4l8.91-12.74c-4.78-3.33-9.96-6.05-15.41-8.1h0Z"/><path class="cls-4" d="M95.47,30.16l4.36-14.92c-5.59-1.62-11.38-2.54-17.2-2.74l-.56,15.52h.01s.01,0,.01,0c.02,0,.04,0,.06,0,0,0,.01,0,.02,0,0,0,.02,0,.03,0,0,0,.01,0,.02,0,0,0,.02,0,.03,0,0,0,.01,0,.02,0h.04s.02,0,.02,0c0,0,.02,0,.02,0,0,0,.02,0,.02,0,0,0,.02,0,.02,0,0,0,.02,0,.02,0,0,0,.02,0,.02,0,.01,0,.02,0,.03,0,.01,0,.02,0,.03,0,0,0,.02,0,.03,0,0,0,.01,0,.02,0,0,0,.02,0,.03,0,0,0,.01,0,.02,0,.01,0,.02,0,.04,0,0,0,.01,0,.02,0,.01,0,.02,0,.04,0,0,0,.01,0,.02,0,.01,0,.02,0,.03,0,0,0,.01,0,.02,0,.01,0,.02,0,.03,0,0,0,.01,0,.02,0,.02,0,.03,0,.05,0,0,0,.01,0,.02,0,.01,0,.02,0,.03,0,0,0,.01,0,.02,0,.01,0,.02,0,.03,0,0,0,.01,0,.02,0,.02,0,.03,0,.05,0,0,0,0,0,.01,0,.01,0,.02,0,.04,0,0,0,.01,0,.02,0,.01,0,.02,0,.03,0,0,0,.01,0,.02,0,.02,0,.03,0,.05,0,0,0,0,0,0,0,.01,0,.03,0,.04,0,0,0,.01,0,.02,0,.01,0,.02,0,.03,0,0,0,0,0,.01,0,.02,0,.03,0,.04,0,0,0,0,0,0,0,.02,0,.03,0,.05,0,0,0,0,0,.01,0,.01,0,.02,0,.04,0,0,0,0,0,.01,0,.01,0,.03,0,.04,0,0,0,0,0,0,0,.02,0,.03,0,.05,0,0,0,0,0,0,0,.01,0,.03,0,.04,0h.01s.03,0,.04,0c0,0,0,0,0,0,.03,0,.07,0,.1,0,0,0,0,0,.01,0,.01,0,.03,0,.04,0,0,0,0,0,0,0,.03,0,.07,0,.1,0,0,0,0,0,0,0,.02,0,.03,0,.04,0,0,0,0,0,0,0,.05,0,.1,0,.15.01,0,0,0,0,0,0,.02,0,.03,0,.05,0,0,0,0,0,0,0,.04,0,.07,0,.1,0,0,0,0,0,0,0,.02,0,.03,0,.05,0,0,0,0,0,0,0,.05,0,.1,0,.16.01,0,0,0,0,0,0,3.71.29,7.38.96,10.95,2h0Z"/><path class="cls-2" d="M83.6,13.54c5.07.24,10.1,1.05,14.99,2.39l-3.8,13c-3.33-.9-6.75-1.49-10.19-1.76h-.13s0-.01,0-.01h-.03s0,0,0,0h0s0,0,0,0h-.12s0,0,0,0h-.03s-.13-.01-.13-.01h0s-.04,0-.04,0h-.06s-.03,0-.03,0h0s-.02,0-.02,0h-.04s-.05,0-.05,0h-.04s-.03,0-.03,0h-.08s0,0,0,0h-.05s0,0,0,0h-.06s0,0,0,0h-.05s0,0,0,0h-.04s-.02,0-.02,0h-.01s-.06-.02-.06-.02h-.14s0,0,0,0h-.06s0,0,0,0c0,0-.01,0-.02,0h-.05s0,0,0,0h-.08s.49-13.53.49-13.53M82.64,12.5l-.56,15.52s0,0,.01,0c0,0,.01,0,.01,0,.02,0,.04,0,.06,0,0,0,.01,0,.02,0,0,0,.02,0,.03,0,0,0,.01,0,.02,0,0,0,.02,0,.03,0,0,0,.01,0,.02,0,.01,0,.03,0,.04,0,0,0,.02,0,.02,0,0,0,.02,0,.02,0,0,0,.02,0,.02,0,0,0,.02,0,.02,0,0,0,.02,0,.02,0,0,0,.02,0,.02,0,.01,0,.02,0,.03,0,.01,0,.02,0,.03,0,0,0,.02,0,.03,0,0,0,.01,0,.02,0,0,0,.02,0,.03,0,0,0,.01,0,.02,0,.01,0,.02,0,.04,0,0,0,.01,0,.02,0,.01,0,.02,0,.04,0,0,0,.01,0,.02,0,.01,0,.02,0,.03,0,0,0,.01,0,.02,0,.01,0,.02,0,.03,0,0,0,.01,0,.02,0,.02,0,.03,0,.05,0,0,0,.01,0,.02,0,.01,0,.02,0,.03,0,0,0,.01,0,.02,0,.01,0,.02,0,.03,0,0,0,.01,0,.02,0,.02,0,.03,0,.05,0,0,0,0,0,.01,0,.01,0,.02,0,.04,0,0,0,.01,0,.02,0,.01,0,.02,0,.03,0,0,0,.01,0,.02,0,.02,0,.03,0,.05,0,0,0,0,0,0,0,.01,0,.03,0,.04,0,0,0,.01,0,.02,0,.01,0,.02,0,.03,0,0,0,0,0,.01,0,.02,0,.03,0,.04,0,0,0,0,0,0,0,.02,0,.03,0,.05,0,0,0,0,0,.01,0,.01,0,.02,0,.04,0,0,0,0,0,.01,0,.01,0,.03,0,.04,0,0,0,0,0,0,0,.02,0,.03,0,.05,0,0,0,0,0,0,0,.01,0,.03,0,.04,0,0,0,0,0,.01,0,.01,0,.03,0,.04,0,0,0,0,0,0,0,.03,0,.07,0,.1,0,0,0,0,0,.01,0,.01,0,.03,0,.04,0,0,0,0,0,0,0,.03,0,.07,0,.1,0,0,0,0,0,0,0,.02,0,.03,0,.04,0,0,0,0,0,0,0,.05,0,.1,0,.15.01,0,0,0,0,0,0,.02,0,.03,0,.05,0,0,0,0,0,0,0,.04,0,.07,0,.1,0,0,0,0,0,0,0,.02,0,.03,0,.05,0,0,0,0,0,0,0,.05,0,.1,0,.16.01,0,0,0,0,0,0,3.71.29,7.38.96,10.95,2l4.36-14.92c-5.59-1.62-11.38-2.54-17.2-2.74h0Z"/></g><g id="Text"><path class="cls-1" d="M5.66,68.33l-3.87-.89.34-1.48c.06-.28.16-.5.29-.67.13-.17.28-.28.46-.33.17-.06.35-.06.55-.02.16.04.29.1.38.18.1.09.17.19.21.3.05.12.07.24.07.38h.04c.04-.13.11-.25.21-.36s.24-.19.39-.24c.16-.05.33-.05.53,0,.2.05.37.14.51.27s.23.31.28.52c.05.22.04.47-.03.77l-.36,1.56ZM3.6,67.12l.16-.7c.03-.12.03-.24,0-.35-.02-.11-.07-.2-.14-.27-.07-.08-.16-.13-.28-.15-.15-.04-.29,0-.41.07-.12.08-.21.23-.25.44l-.16.71,1.07.25ZM5.24,67.5l.17-.76c.06-.26.05-.45-.02-.59-.07-.14-.19-.22-.34-.26-.12-.03-.23-.02-.33.01s-.2.1-.28.19c-.08.09-.13.21-.17.35l-.18.78,1.14.26Z"/><path class="cls-1" d="M6.48,64.89l-2.88-.77.17-.65.48.13v-.03c-.14-.1-.25-.22-.3-.37-.06-.15-.06-.31-.02-.48.01-.04.02-.08.04-.12.02-.04.03-.08.04-.11l.62.17s-.04.07-.06.13-.04.12-.06.18c-.03.12-.04.24-.01.35.03.11.08.21.16.29.08.08.18.14.3.17l1.69.46-.18.67Z"/><path class="cls-1" d="M7.44,61.73c-.08.28-.22.5-.41.67-.19.17-.41.27-.66.32-.25.04-.53.02-.82-.07-.3-.09-.54-.23-.73-.4-.19-.18-.31-.39-.37-.63-.06-.24-.05-.5.04-.78.08-.28.22-.5.4-.67.18-.17.41-.27.66-.31.25-.04.53-.02.83.07.29.09.53.22.72.4.19.18.31.39.37.63.06.24.05.5-.04.78ZM6.9,61.56c.05-.16.04-.3,0-.42-.05-.13-.14-.24-.27-.33-.12-.09-.27-.17-.45-.22-.18-.05-.34-.08-.5-.07-.16,0-.29.05-.41.13-.11.08-.2.19-.24.35-.05.16-.04.3,0,.42.05.13.14.24.27.33.12.09.27.17.45.22.17.05.34.08.5.07.16,0,.29-.05.41-.12.11-.08.19-.19.24-.35Z"/><path class="cls-1" d="M6.56,58.57l1.65.58-.23.65-2.81-.99.22-.62.7.24-.02.05c-.21-.16-.36-.34-.42-.54-.07-.2-.06-.41.02-.64.07-.19.17-.35.3-.46s.29-.18.48-.21c.19-.02.39,0,.62.08l1.79.63-.23.65-1.69-.6c-.19-.07-.35-.07-.49,0-.14.06-.24.17-.3.34-.04.12-.05.23-.03.33.02.11.07.21.15.29.08.09.18.15.32.2Z"/><path class="cls-1" d="M9.08,56.74l-.41-.17-1.22-2.15h-.02s-.56,1.37-.56,1.37l-.54-.22.87-2.17.45.18,1.21,2.07h.02s.57-1.4.57-1.4l.54.22-.91,2.26Z"/><path class="cls-1" d="M10.79,52.8c-.12.27-.29.48-.49.63-.2.14-.43.22-.69.24s-.53-.04-.81-.17c-.28-.13-.5-.29-.67-.49-.16-.2-.26-.42-.29-.67-.03-.25,0-.5.13-.76.07-.17.17-.31.29-.44.12-.13.26-.22.43-.29.16-.07.35-.09.55-.08s.42.07.66.18l.2.09-1,2.22-.43-.19.86-1.91v.35c-.16-.07-.3-.11-.44-.11-.14,0-.26.02-.37.09-.11.06-.19.17-.25.3-.06.14-.08.27-.06.4.02.13.08.24.16.34s.2.18.33.24l.3.13c.17.08.33.11.48.11.14,0,.27-.05.38-.12.11-.08.19-.19.25-.33.04-.09.07-.18.07-.27,0-.09,0-.17-.03-.25-.03-.08-.08-.15-.14-.21l.38-.53c.13.11.22.24.28.4.06.15.09.32.08.51,0,.19-.06.38-.15.58Z"/><path class="cls-2" d="M14.81,35.55l5.25,3.88-.38.52-5.25-3.88.38-.52Z"/><path class="cls-1" d="M40.85,18.98c-.26.16-.52.25-.76.29-.24.04-.47,0-.67-.08-.21-.09-.38-.25-.52-.46l.6-.36c.08.11.18.19.29.23.11.04.23.05.36.02.13-.03.26-.08.38-.15.13-.08.24-.17.32-.28.08-.1.12-.21.14-.32.01-.11,0-.21-.07-.31-.05-.09-.12-.15-.21-.17-.08-.03-.19-.03-.3-.02-.12.01-.24.04-.39.09l-.45.13c-.33.1-.62.12-.86.07-.25-.05-.45-.2-.59-.44-.12-.2-.17-.41-.16-.62.02-.22.09-.42.23-.62.14-.2.32-.37.56-.51.24-.15.48-.23.71-.26s.45,0,.64.09c.19.08.35.22.47.41l-.59.36c-.1-.14-.24-.21-.4-.22s-.34.04-.52.15c-.13.08-.23.16-.29.26-.07.09-.11.19-.12.29,0,.1.01.19.06.28.06.09.13.15.23.18s.2.03.31.01c.11-.02.22-.04.32-.07l.37-.11c.14-.05.29-.08.44-.1.15-.02.29-.02.44,0s.27.07.4.14c.12.08.23.19.32.33.12.2.17.41.16.62,0,.21-.09.42-.23.62s-.35.38-.62.55Z"/><path class="cls-1" d="M41.26,14.74c-.1.05-.2.07-.3.04-.11-.03-.18-.08-.23-.17-.05-.09-.06-.19-.03-.29.03-.1.1-.18.19-.23.1-.06.2-.07.3-.04.11.03.18.08.23.18.05.09.06.19.03.29-.03.1-.1.18-.2.24ZM42.62,17.88l-1.46-2.6.61-.34,1.46,2.6-.61.34Z"/><path class="cls-1" d="M42.57,13.37l1.88,3.5-.61.33-1.88-3.5.61-.33Z"/><path class="cls-1" d="M45.87,16.13l-2.32-2.17.66-.33,1.21,1.21c.14.14.28.29.4.44.13.15.25.3.39.46l-.15.08c-.04-.2-.09-.39-.13-.59-.04-.19-.08-.39-.11-.58l-.24-1.69.66-.33.33,3.17-.69.35Z"/><path class="cls-1" d="M49.07,14.68c-.27.12-.54.17-.79.14-.25-.03-.47-.12-.67-.28-.2-.16-.36-.38-.49-.67-.13-.28-.18-.55-.17-.81s.08-.49.22-.7c.14-.21.34-.37.6-.48.17-.07.34-.12.51-.13s.34,0,.51.07c.17.06.32.16.46.3s.27.33.38.57l.09.2-2.22,1-.19-.43,1.91-.86-.24.26c-.07-.15-.15-.28-.25-.37-.1-.1-.21-.15-.33-.18-.12-.02-.25,0-.39.06-.14.06-.24.15-.31.26-.07.11-.1.23-.1.36,0,.13.03.27.09.4l.13.3c.08.17.17.3.28.4.11.09.23.14.37.16.13.01.27-.01.41-.07.09-.04.17-.09.23-.15.06-.06.11-.13.14-.21.03-.08.04-.16.04-.25l.63-.14c.02.17,0,.33-.05.48-.06.16-.15.3-.28.43-.13.13-.3.24-.5.33Z"/><path class="cls-1" d="M50.79,13.87l-1.12-2.76.62-.25.19.46h.03c-.01-.19.02-.35.11-.49.09-.14.21-.24.37-.3.04-.01.08-.03.12-.04.05-.02.08-.03.12-.03l.24.59s-.08.01-.14.03c-.06.02-.12.04-.18.06-.12.05-.22.12-.29.21-.07.09-.12.19-.14.3-.02.11,0,.23.05.34l.66,1.62-.64.26Z"/><path class="cls-2" d="M80.22,2.77v6.53s-.64,0-.64,0V2.77s.64,0,.64,0Z"/><path class="cls-1" d="M110.57,14.49c-.34-.15-.6-.35-.78-.61-.19-.26-.29-.56-.31-.9-.02-.34.05-.7.22-1.08.17-.39.39-.7.66-.91.27-.22.56-.34.88-.38.32-.04.63.01.95.15.2.09.38.2.52.33s.26.29.35.45.14.35.17.53c.02.19,0,.37-.04.56l-.67-.29c.01-.11.01-.21,0-.31s-.05-.19-.1-.28-.11-.17-.19-.23c-.08-.07-.18-.13-.29-.18-.2-.09-.39-.11-.59-.08-.2.03-.38.12-.55.28-.17.15-.32.37-.44.64-.12.27-.18.53-.17.75,0,.23.06.43.17.6s.27.3.47.39c.19.08.36.12.53.1.17-.01.32-.07.45-.17s.24-.24.32-.42l.14.09-.99-.43.22-.51,1.47.64-.19.44c-.13.31-.32.55-.55.72-.23.17-.49.26-.78.29-.28.02-.58-.03-.88-.17Z"/><path class="cls-1" d="M113.8,16c-.26-.13-.46-.3-.59-.51-.13-.21-.2-.44-.2-.7,0-.26.06-.52.2-.8.14-.28.31-.49.52-.65.21-.16.43-.24.68-.26.25-.02.5.03.76.16.26.13.46.3.59.51.13.21.2.44.2.7s-.07.53-.2.8c-.13.27-.31.49-.51.64-.21.15-.44.24-.68.26-.25.02-.5-.03-.76-.16ZM114.05,15.5c.14.07.28.09.42.06.13-.03.26-.1.37-.21.11-.11.21-.24.29-.41.08-.16.13-.32.15-.48.02-.16,0-.3-.06-.42-.06-.12-.16-.22-.3-.3-.14-.07-.28-.09-.42-.06-.13.03-.26.1-.37.21-.11.11-.21.25-.29.41-.08.16-.13.32-.15.48s0,.3.06.42c.05.12.16.22.3.29Z"/><path class="cls-1" d="M118.12,13.7l-1.88,3.5-.61-.33,1.88-3.5.61.33Z"/><path class="cls-1" d="M117.77,18.11c-.2-.12-.36-.27-.46-.47-.1-.2-.14-.42-.12-.67.02-.25.12-.52.28-.8.17-.29.35-.5.56-.64.21-.14.42-.22.64-.23.22,0,.43.04.62.16.15.09.27.19.33.29s.11.21.13.32c.02.11.02.2.02.27h.03s.74-1.27.74-1.27l.6.35-1.99,3.44-.59-.34.24-.41-.04-.02c-.07.04-.15.08-.25.12-.1.04-.21.05-.34.05-.12,0-.26-.05-.41-.14ZM118.22,17.71c.13.08.26.1.39.09.13-.02.26-.08.38-.17s.23-.23.33-.4c.1-.17.16-.33.18-.48s.01-.29-.04-.41c-.05-.12-.14-.22-.28-.3-.13-.08-.27-.11-.4-.09-.13.02-.26.08-.38.18-.12.1-.22.23-.32.39s-.15.32-.18.47c-.03.15-.02.29.03.42.05.13.14.23.27.3Z"/><path class="cls-2" d="M145.49,35.92l-5.25,3.89-.38-.52,5.25-3.89.38.52Z"/><path class="cls-1" d="M148.16,50.35l3.59-1.7.64,1.34c.13.28.19.53.17.77-.01.24-.09.45-.22.63-.13.18-.31.33-.54.43-.23.11-.46.16-.68.14s-.43-.09-.63-.23c-.19-.14-.35-.35-.48-.62l-.42-.89.53-.25.38.8c.08.16.17.28.27.36.11.08.22.12.34.12s.25-.03.38-.09c.13-.06.23-.14.3-.23.08-.09.11-.21.12-.34,0-.13-.03-.28-.11-.44l-.28-.6-3.05,1.44-.3-.64Z"/><path class="cls-1" d="M153.54,52.56l-3.64,1.58-.28-.64,3.64-1.58.28.64Z"/><path class="cls-1" d="M150.42,55.56c-.07-.18-.1-.35-.09-.51,0-.17.06-.31.15-.44s.23-.23.41-.3c.16-.06.3-.09.42-.07s.24.06.34.14c.1.08.19.17.27.28.08.11.16.23.22.37.08.15.15.28.2.37.05.1.1.16.15.2.05.04.1.04.17.01h.01c.09-.04.16-.09.21-.15.05-.06.08-.13.08-.22,0-.08-.01-.18-.06-.29-.04-.11-.1-.19-.16-.26-.07-.07-.13-.11-.21-.14-.07-.03-.14-.04-.21-.04l-.12-.65c.19,0,.35.02.51.09.15.07.29.18.4.31.12.14.21.3.28.48.05.13.09.27.11.41.02.14.02.29,0,.43s-.09.27-.19.38c-.1.12-.24.21-.42.29l-1.85.74-.25-.62.38-.15v-.02c-.1-.01-.2-.04-.29-.08-.1-.05-.18-.11-.27-.2-.08-.09-.15-.21-.21-.35ZM150.97,55.54c.05.13.13.24.22.31.09.08.19.12.3.14.11.02.21,0,.31-.03l.33-.13s-.06-.04-.09-.09c-.03-.04-.07-.09-.11-.15-.04-.06-.07-.11-.1-.17-.03-.06-.06-.1-.08-.14-.05-.09-.11-.17-.17-.23-.06-.07-.13-.11-.2-.13-.07-.02-.15-.02-.24.02-.08.03-.14.08-.18.14-.04.06-.05.13-.05.21,0,.08.02.17.05.26Z"/><path class="cls-1" d="M154.82,56.52l.24.65-2.68.97c-.1.04-.17.08-.2.15-.03.06-.03.14,0,.24,0,.03.03.07.05.12.03.05.05.08.07.11l-.47.29c-.05-.06-.09-.13-.13-.2-.04-.07-.07-.14-.09-.21-.1-.27-.1-.5-.02-.69s.25-.33.49-.42l2.73-.99ZM154.58,57.96l-.51.19-.58-1.59.51-.18.58,1.59Z"/><path class="cls-1" d="M151.95,59.48l2.82-.95.22.66-2.82.95-.22-.66ZM155.28,58.72c-.04-.1-.03-.21.02-.31.04-.1.12-.16.21-.2.1-.03.2-.03.29.03.09.05.16.13.19.23.04.11.03.21-.01.31-.05.1-.12.17-.22.2-.1.03-.2.02-.29-.03-.1-.05-.16-.13-.2-.24Z"/><path class="cls-1" d="M154.27,60.96l-1.67.51-.2-.66,2.85-.87.19.63-.7.22-.02-.05c.27,0,.49.07.66.18.17.12.29.29.36.53.06.2.07.38.03.55-.04.17-.12.32-.26.45-.13.13-.32.23-.55.3l-1.81.55-.2-.66,1.71-.52c.19-.06.33-.15.4-.29.08-.13.09-.28.04-.46-.04-.12-.09-.21-.17-.29-.08-.08-.17-.13-.29-.15-.11-.02-.24-.01-.38.03Z"/><path class="cls-1" d="M153.56,64.95c-.05-.2-.05-.38,0-.55.05-.17.14-.32.28-.44.14-.12.33-.21.56-.27l1.84-.47.17.67-1.73.44c-.19.05-.33.14-.42.27-.08.13-.1.28-.06.46.03.12.08.22.16.3s.17.13.28.16c.11.03.24.02.38-.01l1.69-.43.17.67-2.89.74-.16-.64.71-.19v.05c-.26-.02-.48-.09-.64-.21-.16-.13-.28-.31-.33-.54Z"/><path class="cls-1" d="M154.16,67.13l2.92-.58.13.64-.7.17v-.05c.17,0,.33.04.46.11.13.07.23.15.31.26s.13.23.15.35c.04.21,0,.4-.1.55-.11.16-.28.29-.53.39l-.02-.08c.18,0,.34.04.48.12.14.07.25.17.33.29.08.12.14.26.17.41.03.18.03.34-.02.5-.05.16-.14.29-.27.4s-.31.19-.52.23l-1.97.39-.14-.68,1.87-.37c.18-.04.3-.11.37-.23.06-.12.08-.24.05-.38-.02-.11-.06-.2-.13-.27-.06-.07-.14-.12-.23-.15-.09-.03-.19-.03-.3,0l-1.83.37-.13-.66,1.9-.38c.15-.03.26-.1.33-.21s.09-.24.06-.38c-.02-.1-.06-.19-.12-.26-.06-.07-.14-.13-.24-.16-.1-.03-.21-.03-.34,0l-1.79.36-.14-.68Z"/></g></svg>