<?xml version="1.0" encoding="UTF-8"?>
<svg xmlns="http://www.w3.org/2000/svg" viewBox="0 0 160 84">
  <defs>
    <style>
      .cls-1 {
        fill: #7b8794;
      }

      .cls-1, .cls-2, .cls-3, .cls-4 {
        stroke-width: 0px;
      }

      .cls-2 {
        fill: #cdd6dc;
      }

      .cls-3 {
        fill: #9fafbc;
      }

      .cls-4 {
        fill: #fff;
      }
    </style>
  </defs>
  <g id="Large_gauge" data-name="Large gauge">
    <g>
      <path class="cls-1" d="M5.24,69.8l-4.59-1.04.4-1.75c.07-.33.19-.59.34-.79.15-.2.33-.33.54-.4.2-.07.42-.08.65-.02.19.04.34.11.45.22.12.1.2.22.26.36.06.14.08.29.08.44h.05c.05-.15.13-.29.25-.42s.28-.22.47-.28c.19-.06.39-.06.63,0,.24.05.44.16.6.32.16.16.27.36.33.62s.04.56-.03.91l-.42,1.85ZM2.8,68.38l.19-.83c.03-.15.04-.28,0-.41-.03-.13-.08-.23-.17-.32-.08-.09-.19-.15-.33-.18-.18-.04-.34-.01-.48.09s-.24.27-.3.52l-.19.85,1.27.29ZM4.74,68.82l.2-.9c.07-.3.06-.54-.03-.7s-.22-.26-.4-.3c-.14-.03-.27-.03-.39.02-.13.04-.23.12-.33.23-.09.11-.16.25-.2.42l-.21.93,1.35.31Z"/>
      <path class="cls-1" d="M6.2,65.72l-3.4-.93.21-.77.57.16v-.04c-.17-.11-.29-.26-.36-.44-.06-.18-.07-.37-.02-.56.01-.04.03-.09.05-.15.02-.05.04-.1.05-.14l.73.2s-.04.08-.07.15c-.03.07-.05.14-.07.21-.04.15-.04.29-.01.42.03.13.09.25.19.34.09.1.21.16.36.2l2,.55-.22.79Z"/>
      <path class="cls-1" d="M7.36,61.99c-.1.33-.27.59-.49.78-.22.19-.48.32-.78.37-.3.05-.62.02-.97-.09-.35-.11-.63-.27-.85-.49-.22-.21-.36-.46-.43-.75s-.05-.59.05-.92c.1-.33.27-.59.49-.79.22-.19.48-.32.79-.37s.63-.02.98.09c.34.11.63.27.84.48.22.21.36.46.43.75.07.29.05.59-.05.92ZM6.73,61.79c.06-.18.06-.35,0-.5s-.16-.28-.31-.4c-.15-.11-.32-.2-.53-.26-.21-.07-.4-.09-.59-.09-.18,0-.35.06-.48.15-.14.09-.23.23-.29.41s-.06.35,0,.5c.06.15.16.28.31.39.15.11.32.2.53.27.21.06.4.09.59.09.18,0,.35-.05.48-.14.14-.09.23-.22.29-.41Z"/>
      <path class="cls-1" d="M6.37,58.24l1.94.72-.29.77-3.31-1.23.27-.73.82.29-.02.06c-.25-.2-.41-.42-.49-.65-.08-.23-.06-.48.04-.75.08-.23.21-.41.37-.54.16-.13.35-.21.57-.24.22-.02.46.01.73.11l2.1.78-.29.77-1.98-.74c-.22-.08-.42-.09-.58-.02-.17.07-.29.2-.37.4-.05.14-.07.27-.05.4.02.13.07.24.17.35.09.1.22.18.38.24Z"/>
      <path class="cls-1" d="M9.39,56.13l-.48-.21-1.38-2.58h-.03s-.7,1.61-.7,1.61l-.63-.27,1.1-2.55.52.22,1.38,2.48h.03s.71-1.64.71-1.64l.63.27-1.14,2.65Z"/>
      <path class="cls-1" d="M11.55,51.53c-.16.32-.36.56-.6.73-.25.16-.52.25-.83.25-.3,0-.62-.07-.95-.23-.33-.16-.58-.36-.77-.6-.19-.24-.29-.51-.32-.8-.03-.29.03-.59.18-.89.09-.19.22-.36.36-.51.15-.14.32-.25.52-.32.2-.07.41-.1.65-.07s.5.1.78.24l.23.11-1.26,2.59-.5-.24,1.09-2.23-.02.42c-.18-.09-.35-.14-.51-.15-.16-.01-.31.02-.44.09-.13.07-.23.19-.31.35s-.11.32-.09.47c.02.15.08.29.18.41.1.12.23.22.38.3l.35.17c.2.1.39.15.56.15.17,0,.32-.05.45-.13s.23-.21.31-.38c.05-.11.09-.21.1-.32.01-.1,0-.2-.03-.3s-.08-.18-.16-.25l.47-.61c.15.13.25.29.32.48.07.19.09.39.07.61-.02.22-.09.45-.2.68Z"/>
      <path class="cls-2" d="M15.16,34.01l6.1,4.75-.47.6-6.1-4.75.47-.6Z"/>
      <path class="cls-1" d="M40.1,20.05c-.31.19-.61.31-.9.35-.29.04-.55.01-.8-.09-.24-.1-.45-.29-.62-.54l.71-.44c.1.13.21.22.35.27s.28.05.43.02c.15-.03.3-.09.45-.19.16-.1.28-.21.37-.33.09-.12.14-.25.16-.38.01-.13-.01-.25-.09-.36-.06-.1-.15-.17-.25-.2s-.22-.04-.36-.02c-.14.02-.29.06-.46.11l-.53.16c-.39.12-.73.15-1.02.1-.29-.06-.53-.23-.7-.51-.15-.24-.21-.48-.19-.74.02-.26.11-.5.27-.73.16-.23.38-.44.66-.61.28-.18.56-.28.84-.32.28-.03.53,0,.76.1.23.1.41.26.56.48l-.7.43c-.12-.16-.28-.25-.48-.26-.19,0-.4.05-.61.19-.15.09-.27.2-.35.31-.08.11-.13.23-.13.34s.02.22.08.33c.07.11.16.18.27.21.11.03.24.03.37.01.13-.02.26-.05.38-.09l.43-.13c.17-.06.34-.1.52-.12.18-.03.35-.03.52,0,.17.02.32.08.47.16.15.09.27.22.38.39.15.23.21.48.2.73-.01.25-.1.5-.26.74-.16.24-.41.46-.72.65Z"/>
      <path class="cls-1" d="M40.56,15.02c-.11.06-.23.08-.36.05-.12-.03-.22-.1-.28-.21-.06-.11-.07-.23-.04-.35.04-.12.11-.22.23-.28.11-.07.23-.08.36-.05.12.03.22.1.28.21.06.11.07.22.03.35-.04.12-.11.22-.23.28ZM42.19,18.72l-1.74-3.07.71-.4,1.74,3.07-.71.4Z"/>
      <path class="cls-1" d="M42.13,13.38l2.23,4.14-.72.39-2.23-4.14.72-.39Z"/>
      <path class="cls-1" d="M46.05,16.65l-2.74-2.58.79-.39,1.43,1.44c.17.17.33.34.48.52.15.18.3.36.46.55l-.18.09c-.05-.24-.1-.47-.15-.69-.05-.23-.1-.46-.13-.69l-.27-2,.78-.39.38,3.75-.82.41Z"/>
      <path class="cls-1" d="M49.85,14.95c-.33.14-.64.2-.93.16-.29-.03-.56-.15-.79-.34-.23-.19-.43-.46-.57-.8-.15-.33-.21-.65-.2-.96.02-.3.11-.58.27-.82.17-.24.4-.43.71-.56.2-.09.4-.14.6-.15.21-.01.41.02.6.09s.38.2.55.37c.17.17.31.4.44.68l.1.24-2.64,1.15-.22-.51,2.27-.99-.29.3c-.08-.18-.18-.33-.29-.44-.12-.11-.25-.18-.39-.21-.14-.03-.3,0-.47.07-.17.07-.29.17-.37.3-.08.13-.12.27-.13.43,0,.16.03.31.1.47l.15.35c.09.2.2.36.33.47.13.11.27.17.43.19.16.02.32-.01.48-.08.11-.05.2-.11.28-.18.08-.07.13-.15.17-.24.04-.09.05-.19.05-.29l.75-.16c.02.2,0,.39-.07.57-.07.18-.18.35-.34.51-.16.15-.35.28-.6.39Z"/>
      <path class="cls-1" d="M51.87,14.02l-1.28-3.29.74-.29.21.55h.04c-.02-.23.03-.41.14-.57.11-.16.25-.28.44-.35.04-.02.09-.03.15-.05.05-.02.1-.03.14-.04l.27.7s-.09.01-.16.03c-.07.02-.14.04-.21.07-.14.05-.26.13-.35.24s-.15.22-.17.35c-.02.13,0,.27.05.41l.75,1.94-.77.3Z"/>
      <path class="cls-2" d="M80.49,2.33v7.73s-.75,0-.75,0V2.33s.75,0,.75,0Z"/>
      <path class="cls-1" d="M110.19,14.67c-.4-.17-.71-.41-.94-.71-.22-.31-.35-.66-.38-1.06-.03-.4.05-.83.24-1.29.2-.47.45-.83.77-1.09.31-.26.66-.42,1.03-.47.37-.05.75,0,1.13.16.24.1.45.23.62.39.18.16.32.33.43.53.11.2.18.41.21.63.03.22.02.44-.04.67l-.79-.33c.01-.13,0-.26-.01-.37-.02-.12-.06-.23-.12-.33-.06-.1-.14-.19-.23-.27-.1-.08-.21-.15-.34-.2-.23-.1-.47-.13-.7-.09-.23.04-.45.15-.65.34-.2.18-.37.44-.51.77-.14.33-.2.62-.19.9,0,.27.08.51.21.7.13.2.32.35.56.45.22.09.43.13.63.11.2-.02.37-.09.53-.21.15-.12.28-.29.37-.5l.16.1-1.18-.5.26-.61,1.75.74-.22.52c-.16.37-.37.66-.64.86-.27.2-.58.32-.91.35-.34.03-.68-.03-1.04-.18Z"/>
      <path class="cls-1" d="M114.04,16.43c-.31-.15-.54-.35-.7-.6-.16-.25-.24-.52-.25-.83,0-.31.07-.62.23-.95.16-.33.36-.59.61-.77.24-.19.51-.29.81-.32.29-.03.59.04.9.19.31.15.54.35.7.6s.24.52.24.83c0,.31-.08.63-.24.95-.16.33-.36.58-.6.76-.24.18-.51.29-.81.32-.29.03-.6-.04-.91-.19ZM114.34,15.83c.17.08.34.11.5.07.16-.04.31-.12.44-.25.13-.13.25-.29.34-.48.1-.19.15-.38.17-.57s0-.35-.07-.5c-.07-.15-.19-.26-.36-.35s-.34-.11-.49-.07c-.16.04-.3.12-.43.25-.13.13-.25.29-.34.49-.09.19-.15.38-.17.56-.02.18,0,.35.07.5.07.15.19.26.36.35Z"/>
      <path class="cls-1" d="M119.12,13.68l-2.22,4.15-.72-.39,2.22-4.15.72.39Z"/>
      <path class="cls-1" d="M118.72,18.92c-.24-.14-.42-.33-.54-.56-.12-.23-.16-.5-.14-.8.03-.3.14-.61.34-.95.2-.34.42-.59.67-.76s.5-.26.76-.27c.26,0,.51.05.74.19.18.11.31.22.39.35.08.13.13.25.15.38.02.12.02.23.02.32l.03.02.89-1.52.71.41-2.37,4.06-.69-.41.28-.48-.04-.03c-.08.05-.18.1-.3.14-.12.04-.25.06-.4.05-.15,0-.31-.06-.49-.17ZM119.26,18.45c.15.09.31.13.47.11.15-.02.3-.09.45-.2.14-.12.27-.27.39-.47.12-.2.19-.39.22-.56.03-.18.02-.34-.05-.49-.06-.15-.17-.26-.32-.35-.16-.09-.32-.13-.47-.11-.16.02-.31.09-.45.21s-.27.27-.38.46c-.11.19-.18.37-.22.56-.03.18-.02.35.04.5s.17.27.32.36Z"/>
      <path class="cls-2" d="M147.79,37.09l-6.28,4.52-.45-.62,6.28-4.52.45.62Z"/>
      <path class="cls-1" d="M148.4,49.95l4.22-2.08.78,1.58c.16.32.23.62.22.9-.01.28-.1.53-.25.75-.15.22-.37.39-.63.52-.27.13-.54.19-.8.18-.27-.01-.51-.1-.74-.26-.23-.16-.43-.41-.59-.73l-.51-1.04.62-.31.47.95c.09.19.2.33.33.42.13.09.26.13.41.13.15,0,.29-.04.44-.11.15-.07.27-.17.35-.28.09-.11.13-.25.14-.4,0-.15-.04-.33-.14-.52l-.35-.71-3.58,1.76-.37-.76Z"/>
      <path class="cls-1" d="M154.8,52.47l-4.29,1.92-.33-.75,4.29-1.92.33.75Z"/>
      <path class="cls-1" d="M151.15,56.09c-.08-.21-.12-.41-.11-.6,0-.2.07-.37.17-.53.11-.15.27-.28.48-.36.19-.07.35-.1.5-.08.15.02.28.07.4.16.12.09.23.2.33.33.1.13.19.28.27.43.1.18.18.33.24.44.06.11.12.19.18.23s.12.05.2.02h.01c.11-.05.19-.11.25-.18s.09-.16.09-.26c0-.1-.02-.21-.07-.34-.05-.13-.11-.23-.19-.31-.08-.08-.16-.13-.24-.17-.09-.03-.17-.05-.25-.05l-.14-.76c.22-.01.42.02.6.1.18.08.34.21.48.37.14.16.25.35.34.57.06.15.11.32.14.49.03.17.02.34,0,.51-.03.17-.11.32-.22.46-.11.14-.28.25-.5.34l-2.18.89-.3-.73.45-.18v-.03c-.12-.01-.24-.04-.35-.1-.11-.05-.22-.13-.32-.24-.1-.11-.18-.25-.25-.42ZM151.8,56.06c.06.16.15.28.26.37.11.09.23.14.36.17.13.02.25,0,.37-.04l.39-.16s-.07-.05-.11-.11c-.04-.05-.08-.11-.13-.18-.04-.07-.08-.13-.12-.2-.04-.07-.07-.12-.1-.17-.06-.11-.13-.2-.2-.28-.07-.08-.15-.13-.24-.16s-.18-.02-.28.02c-.09.04-.16.09-.21.17-.04.07-.07.16-.07.25,0,.1.02.2.07.31Z"/>
      <path class="cls-1" d="M156.35,57.2l.28.77-3.17,1.15c-.12.04-.2.1-.24.17-.04.07-.04.17,0,.28.01.04.03.08.06.14s.06.1.08.13l-.55.34c-.06-.08-.11-.16-.15-.24-.04-.09-.08-.17-.11-.25-.11-.32-.12-.59-.03-.82.1-.23.29-.39.58-.5l3.24-1.17ZM156.07,58.89l-.61.22-.68-1.88.61-.22.68,1.89Z"/>
      <path class="cls-1" d="M152.95,60.69l3.35-1.11.26.78-3.35,1.11-.26-.78ZM156.9,59.81c-.04-.12-.03-.24.02-.36.05-.12.14-.19.25-.23.12-.04.24-.03.35.03.11.06.19.15.23.28.04.13.04.25-.02.36-.05.12-.14.19-.26.23-.12.04-.23.03-.35-.03-.11-.06-.19-.15-.23-.28Z"/>
      <path class="cls-1" d="M155.69,62.47l-1.98.58-.23-.79,3.39-.99.22.75-.83.26-.02-.06c.32,0,.58.08.78.22s.34.35.42.63c.07.23.08.45.03.65-.05.2-.15.38-.31.53-.16.15-.38.27-.65.35l-2.15.63-.23-.79,2.03-.59c.23-.07.39-.18.48-.33.1-.15.11-.34.05-.54-.04-.14-.11-.26-.2-.35-.09-.09-.21-.15-.34-.18-.13-.03-.28-.02-.45.03Z"/>
      <path class="cls-1" d="M154.79,67.19c-.06-.24-.06-.45,0-.65.06-.2.17-.37.34-.52.17-.14.39-.25.67-.31l2.18-.52.19.8-2.06.49c-.23.06-.4.16-.5.31-.1.15-.13.33-.08.54.03.14.09.26.18.36.09.1.2.16.33.2.13.03.28.03.45,0l2.01-.48.19.8-3.43.82-.18-.76.85-.21v.06c-.31-.02-.56-.11-.76-.27-.19-.15-.32-.37-.39-.64Z"/>
      <path class="cls-1" d="M155.45,69.79l3.48-.6.13.76-.83.17v-.06c.21.01.39.06.54.14s.27.19.35.32c.09.13.14.27.17.42.04.25,0,.47-.13.65-.13.18-.34.33-.64.45l-.02-.1c.22.01.4.06.56.16s.28.21.38.36c.1.15.16.31.19.49.04.21.02.41-.04.59-.06.18-.17.34-.33.46-.16.13-.37.21-.63.26l-2.35.4-.14-.81,2.22-.38c.22-.04.36-.12.44-.26s.11-.28.08-.45c-.02-.13-.07-.24-.14-.32-.07-.09-.16-.15-.27-.18-.11-.03-.23-.04-.36-.02l-2.18.37-.14-.79,2.26-.39c.18-.03.31-.11.4-.24.09-.13.12-.28.09-.45-.02-.12-.07-.22-.14-.31s-.16-.15-.28-.19-.25-.05-.41-.02l-2.13.37-.14-.81Z"/>
    </g>
  </g>
  <g id="Gauge_states_SVG_PNG" data-name="Gauge states SVG+PNG">
    <g id="silver-3">
      <path class="cls-3" d="M49.07,37.65s.04-.03.07-.05c0,0,0,0,0,0,0,0,.02-.01.03-.02,0,0,0,0,0,0,.03-.02.06-.04.09-.06,0,0,0,0,0,0l.03-.02s0,0,0,0c.04-.03.08-.06.13-.09,0,0,0,0,0,0,.01,0,.02-.01.03-.02,0,0,0,0,0,0,.03-.02.06-.04.1-.06,0,0,0,0,0,0,.01,0,.02-.01.03-.02,0,0,0,0,0,0,.04-.03.09-.06.13-.09h0s.02-.02.03-.02h0s.07-.04.1-.07h0s.02-.02.03-.02c0,0,0,0,0,0,.03-.02.07-.04.1-.07h0s.02-.01.03-.02c0,0,0,0,0,0,.04-.03.09-.06.13-.09,0,0,0,0,0,0,.01,0,.02-.01.03-.02,0,0,0,0,0,0,.03-.02.07-.04.1-.06h0s.02-.02.03-.02c0,0,0,0,0,0,.04-.03.09-.06.13-.09h0s.02-.02.03-.02h0s.09-.06.14-.09h0s.09-.06.13-.09h0s.09-.06.13-.09h0s.02-.02.03-.02h0s.09-.06.14-.09h0s.09-.06.14-.09h0c.06-.04.11-.07.17-.11h0c3.04-1.88,6.27-3.48,9.66-4.74l-5.44-14.54c-5.46,2.04-10.66,4.76-15.46,8.09l8.88,12.74h0Z"/>
      <path class="cls-2" d="M55.07,18.12l4.74,12.67c-3.09,1.22-6.08,2.72-8.91,4.47l-.09.05-.11.07-.11.07-.03.02h0s-.08.05-.08.05l-.02.02h0s0,0,0,0l-.03.02-.08.05-.06.04-.14.09-.17.11-.05.03h0s-.09.06-.09.06l-.06.04h0s-.02.01-.02.01l-.05.04-.04.02h-.02s0,.02,0,.02l-.11.07h0s-.02.02-.02.02l-.04.03h0s-.07.05-.07.05l-.03.02h0s-.01.01-.01.01h0s-7.74-11.1-7.74-11.1c4.22-2.84,8.75-5.21,13.48-7.05M55.65,16.83c-5.46,2.04-10.66,4.76-15.46,8.09l8.88,12.74s.04-.03.07-.05c0,0,0,0,0,0,0,0,.02-.01.03-.02,0,0,0,0,0,0,.03-.02.06-.04.09-.06,0,0,0,0,0,0l.03-.02s0,0,0,0c.04-.03.08-.06.13-.09,0,0,0,0,0,0,.01,0,.02-.01.03-.02,0,0,0,0,0,0,.03-.02.06-.04.1-.06,0,0,0,0,0,0,.01,0,.02-.01.03-.02,0,0,0,0,0,0,.04-.03.09-.06.13-.09,0,0,0,0,0,0,.01,0,.02-.01.03-.02h0s.07-.04.1-.07h0s.02-.02.03-.02c0,0,0,0,0,0,.03-.02.07-.04.1-.07h0s.02-.01.03-.02c0,0,0,0,0,0,.04-.03.09-.06.13-.09,0,0,0,0,0,0,.01,0,.02-.01.03-.02,0,0,0,0,0,0,.03-.02.07-.04.1-.06h0s.02-.02.03-.02c0,0,0,0,0,0,.04-.03.09-.06.13-.09h0s.02-.02.03-.02h0s.09-.06.14-.09h0s.09-.06.13-.09h0s.09-.06.13-.09h0s.02-.02.03-.02h0s.09-.06.14-.09h0s.09-.06.14-.09h0c.06-.04.11-.07.17-.11h0c3.04-1.88,6.27-3.48,9.66-4.74l-5.44-14.54h0Z"/>
      <path class="cls-3" d="M25.67,82.32s0-.05,0-.08c0,0,0,0,0,0,0-.01,0-.02,0-.04,0,0,0,0,0,0,0-.04,0-.08,0-.11,0,0,0,0,0,0v-.04s0,0,0,0c0-.05,0-.1,0-.15,0,0,0,0,0,0,0-.01,0-.02,0-.04,0,0,0,0,0,0,0-.04,0-.08,0-.12,0,0,0,0,0,0,0-.01,0-.02,0-.04,0,0,0,0,0,0,0-.05,0-.11,0-.16h0s0-.03,0-.04h0s0-.08,0-.12h0s0-.03,0-.04c0,0,0,0,0,0,0-.04,0-.08,0-.12h0s0-.03,0-.04c0,0,0,0,0,0,0-.05,0-.1,0-.16,0,0,0,0,0,0,0-.01,0-.02,0-.04,0,0,0,0,0,0,0-.04,0-.08,0-.12h0s0-.03,0-.04c0,0,0,0,0,0,0-.05,0-.11,0-.16h0s0-.03,0-.04h0c0-.05,0-.11,0-.16h0c0-.06,0-.11,0-.16h0c0-.06,0-.11,0-.16h0s0-.03,0-.04h0c0-.05,0-.11,0-.16h0c0-.06,0-.11,0-.16h0c0-.07,0-.14.01-.21h0c.19-3.57.72-7.13,1.62-10.64l-15.05-3.83c-1.44,5.65-2.18,11.47-2.18,17.31l15.53-.03h0Z"/>
      <path class="cls-2" d="M13.04,66.25l13.11,3.33c-.76,3.23-1.24,6.54-1.41,9.86v.1s-.01.13-.01.13v.13s0,.04,0,.04h0s0,.1,0,.1v.03s0,.01,0,.01h0s0,.05,0,.05v.09s0,.07,0,.07v.16s-.01.21-.01.21v.06s0,0,0,0v.1s0,.08,0,.08h0s0,.03,0,.03v.06s0,.05,0,.05v.02s0,0,0,0v.13s0,0,0,0v.03s0,.05,0,.05h0s0,.09,0,.09v.03s0,0,0,0v.02s0,0,0,0l-13.53.02c.08-5.09.72-10.16,1.9-15.1M12.32,65.03c-1.44,5.65-2.18,11.47-2.18,17.31l15.53-.03s0-.05,0-.08c0,0,0,0,0,0,0-.01,0-.02,0-.04,0,0,0,0,0,0,0-.04,0-.08,0-.11,0,0,0,0,0,0v-.04s0,0,0,0c0-.05,0-.1,0-.15,0,0,0,0,0,0,0-.01,0-.02,0-.04,0,0,0,0,0,0,0-.04,0-.08,0-.12,0,0,0,0,0,0,0-.01,0-.02,0-.04,0,0,0,0,0,0,0-.05,0-.1,0-.16,0,0,0,0,0,0,0-.01,0-.03,0-.04h0s0-.08,0-.12h0s0-.03,0-.04c0,0,0,0,0,0,0-.04,0-.08,0-.12h0s0-.03,0-.04c0,0,0,0,0,0,0-.05,0-.1,0-.16,0,0,0,0,0,0,0-.01,0-.03,0-.04,0,0,0,0,0,0,0-.04,0-.08,0-.12h0s0-.03,0-.04c0,0,0,0,0,0,0-.05,0-.11,0-.16h0s0-.03,0-.04h0c0-.05,0-.11,0-.16h0c0-.06,0-.11,0-.16h0c0-.06,0-.11,0-.16h0s0-.03,0-.04h0c0-.05,0-.11,0-.16h0c0-.06,0-.11,0-.16h0c0-.07,0-.14.01-.21h0c.19-3.57.72-7.13,1.62-10.64l-15.05-3.83h0Z"/>
      <path class="cls-3" d="M28.48,65.14s.02-.05.03-.08c0,0,0,0,0,0,0-.01,0-.02.01-.03,0,0,0,0,0,0,.01-.04.02-.07.04-.11,0,0,0,0,0,0v-.03s.01,0,.01,0c.02-.05.03-.1.05-.15,0,0,0,0,0,0,0-.01,0-.02.01-.03,0,0,0,0,0,0,.01-.04.02-.07.04-.11,0,0,0,0,0,0,0-.01,0-.02.01-.03,0,0,0,0,0,0,.02-.05.03-.1.05-.15h0s0-.03.01-.04h0s.03-.08.04-.11h0s0-.03.01-.04c0,0,0,0,0,0,.01-.04.03-.07.04-.11h0s0-.02.01-.04c0,0,0,0,0,0,.02-.05.04-.1.05-.15,0,0,0,0,0,0,0-.01,0-.02.01-.04,0,0,0,0,0,0,.01-.04.03-.07.04-.11h0s0-.03.01-.04c0,0,0,0,0,0,.02-.05.04-.1.06-.15h0s0-.03.01-.04h0c.02-.05.04-.1.06-.15h0c.02-.05.04-.1.06-.15h0c.02-.05.04-.1.06-.15h0s0-.03.01-.04h0c.02-.05.04-.1.06-.15h0c.02-.05.04-.1.06-.15h0c.02-.07.05-.13.07-.19h0c1.3-3.33,2.94-6.54,4.89-9.58l-13.07-8.38c-3.15,4.9-5.69,10.2-7.53,15.74l14.75,4.88h0Z"/>
      <path class="cls-2" d="M21.57,45.91l11.39,7.3c-1.74,2.82-3.24,5.82-4.45,8.92l-.04.09-.05.12-.05.13v.03s-.01,0-.01,0l-.03.09v.03s-.01.01-.01.01h0s-.01.04-.01.04l-.03.09-.02.06-.06.15-.07.19-.02.05h0s-.04.1-.04.1l-.03.07h0s0,.02,0,.02l-.02.06-.02.04v.02s0,0,0,0l-.04.12h0s0,.03,0,.03l-.02.05h0s-.03.08-.03.08v.03s-.01,0-.01,0v.02s0,0,0,0l-12.85-4.25c1.68-4.81,3.88-9.41,6.57-13.72M21.26,44.52c-3.15,4.9-5.69,10.2-7.53,15.74l14.75,4.88s.02-.05.03-.08c0,0,0,0,0,0,0-.01,0-.02.01-.03,0,0,0,0,0,0,.01-.04.02-.07.04-.11,0,0,0,0,0,0v-.03s.01,0,.01,0c.02-.05.03-.1.05-.15,0,0,0,0,0,0,0-.01,0-.02.01-.03,0,0,0,0,0,0,.01-.04.02-.07.04-.11,0,0,0,0,0,0,0-.01,0-.02.01-.03,0,0,0,0,0,0,.02-.05.03-.1.05-.15,0,0,0,0,0,0,0-.01,0-.02.01-.04h0s.03-.08.04-.11h0s0-.03.01-.04c0,0,0,0,0,0,.01-.04.03-.07.04-.11h0s0-.02.01-.04c0,0,0,0,0,0,.02-.05.04-.1.05-.15,0,0,0,0,0,0,0-.01,0-.02.01-.04,0,0,0,0,0,0,.01-.04.03-.07.04-.11h0s0-.03.01-.04c0,0,0,0,0,0,.02-.05.04-.1.05-.15h0s0-.03.01-.04h0c.02-.05.04-.1.06-.15h0c.02-.05.04-.1.06-.15h0c.02-.05.04-.1.06-.15h0s0-.03.01-.04h0c.02-.05.04-.1.06-.15h0c.02-.05.04-.1.06-.15h0c.02-.07.05-.13.07-.19h0c1.3-3.33,2.94-6.54,4.89-9.58l-13.07-8.38h0Z"/>
      <path class="cls-3" d="M64.81,30.14s.05-.02.08-.02c0,0,0,0,0,0,.01,0,.02,0,.03,0,0,0,0,0,0,0,.04-.01.07-.02.11-.03,0,0,0,0,0,0h.03s0-.01,0-.01c.05-.01.1-.03.15-.04,0,0,0,0,0,0,.01,0,.02,0,.03,0,0,0,0,0,0,0,.04-.01.07-.02.11-.03,0,0,0,0,0,0,.01,0,.02,0,.04-.01,0,0,0,0,0,0,.05-.01.1-.03.15-.04h0s.02,0,.04-.01h0s.08-.02.12-.03h0s.02,0,.04-.01c0,0,0,0,0,0,.04-.01.08-.02.11-.03h0s.02,0,.04-.01c0,0,0,0,0,0,.05-.01.1-.03.15-.04,0,0,0,0,0,0,.01,0,.02,0,.04,0,0,0,0,0,0,0,.04-.01.08-.02.11-.03h0s.02,0,.04-.01c0,0,0,0,0,0,.05-.01.1-.03.15-.04h0s.03,0,.04-.01h0c.05-.01.1-.03.16-.04h0c.05-.01.1-.03.15-.04h0c.05-.01.1-.03.15-.04h0s.03,0,.04-.01h0c.05-.01.1-.03.16-.04h0c.05-.01.1-.03.16-.04h0c.07-.02.13-.03.2-.05h0c3.48-.83,7.05-1.32,10.66-1.44l-.57-15.51c-5.82.21-11.62,1.14-17.23,2.79l4.4,14.89h0Z"/>
      <path class="cls-2" d="M76.67,13.5l.5,13.52c-3.31.18-6.63.66-9.86,1.43l-.1.02-.13.03-.13.03h-.03s0,0,0,0l-.09.02h-.03s-.01,0-.01,0h0s-.04.01-.04.01l-.09.02-.06.02-.16.04-.2.05h-.06s0,.02,0,.02l-.1.03-.07.02h0s-.02,0-.02,0l-.06.02h-.05s-.02.02-.02.02h0s-.13.03-.13.03h0s-.03,0-.03,0h-.05s0,.01,0,.01l-.08.02h-.03s0,0,0,0h-.02s0,0,0,0l-3.84-12.98c4.9-1.36,9.95-2.18,15.02-2.43M77.64,12.46c-5.83.21-11.62,1.14-17.23,2.79l4.4,14.89s.05-.02.08-.02c0,0,0,0,0,0,.01,0,.02,0,.03,0,0,0,0,0,0,0,.04-.01.07-.02.11-.03,0,0,0,0,0,0h.03s0-.01,0-.01c.05-.01.1-.03.15-.04,0,0,0,0,0,0,.01,0,.02,0,.03,0,0,0,0,0,0,0,.04-.01.07-.02.11-.03,0,0,0,0,0,0,.01,0,.02,0,.04-.01,0,0,0,0,0,0,.05-.01.1-.03.15-.04,0,0,0,0,0,0,.01,0,.02,0,.04-.01h0s.08-.02.12-.03h0s.02,0,.04-.01c0,0,0,0,0,0,.04-.01.08-.02.11-.03h0s.02,0,.04-.01c0,0,0,0,0,0,.05-.01.1-.03.15-.04,0,0,0,0,0,0,.01,0,.02,0,.04,0,0,0,0,0,0,0,.04-.01.08-.02.11-.03h0s.02,0,.04-.01c0,0,0,0,0,0,.05-.01.1-.03.15-.04h0s.03,0,.04-.01h0c.05-.01.1-.03.16-.04h0c.05-.01.1-.03.15-.04h0c.05-.01.1-.03.15-.04h0s.03,0,.04-.01h0c.05-.01.1-.03.16-.04h0c.05-.01.1-.03.16-.04h0c.07-.02.13-.03.2-.05h0c3.48-.83,7.05-1.32,10.66-1.44l-.57-15.51h0Z"/>
      <path class="cls-3" d="M36.53,49.73s.03-.04.05-.06c0,0,0,0,0,0,0,0,.01-.02.02-.03,0,0,0,0,0,0,.02-.03.05-.06.07-.09,0,0,0,0,0,0l.02-.03s0,0,0,0c.03-.04.06-.08.09-.12,0,0,0,0,0,0,0,0,.01-.02.02-.03,0,0,0,0,0,0,.02-.03.05-.06.07-.09,0,0,0,0,0,0,0,0,.01-.02.02-.03,0,0,0,0,0,0,.03-.04.06-.08.1-.12h0s.02-.02.02-.03h0s.05-.06.07-.1h0s.02-.02.02-.03c0,0,0,0,0,0,.02-.03.05-.06.07-.09h0s.02-.02.02-.03c0,0,0,0,0,0,.03-.04.06-.08.1-.12,0,0,0,0,0,0,0,0,.02-.02.02-.03,0,0,0,0,0,0,.02-.03.05-.06.07-.09h0s.02-.02.02-.03c0,0,0,0,0,0,.03-.04.07-.08.1-.12h0s.02-.02.03-.03h0s.07-.08.1-.13h0s.07-.08.1-.13h0s.07-.09.1-.13h0s.02-.02.02-.03h0s.07-.08.1-.13h0s.07-.08.1-.13h0c.04-.05.09-.11.13-.16h0c2.29-2.75,4.86-5.28,7.68-7.54l-9.75-12.08c-4.54,3.65-8.62,7.87-12.13,12.55l12.45,9.29h0Z"/>
      <path class="cls-2" d="M36.06,29.3l8.49,10.53c-2.55,2.13-4.91,4.49-7.04,7.05l-.06.08-.08.1-.09.1-.02.03h0s-.06.08-.06.08l-.02.02h0s0,.01,0,.01l-.02.03-.06.07-.04.05-.1.13-.13.16-.04.05h0s-.06.08-.06.08l-.05.06h0s-.02.02-.02.02l-.04.05-.03.04v.02s-.02,0-.02,0l-.08.1h0s-.02.02-.02.02l-.03.04h0s-.05.07-.05.07l-.02.02h0s-.01.02-.01.02h0s-10.84-8.09-10.84-8.09c3.11-4.03,6.66-7.7,10.57-10.94M36.21,27.89c-4.54,3.65-8.62,7.87-12.13,12.55l12.45,9.29s.03-.04.05-.06c0,0,0,0,0,0,0,0,.01-.02.02-.03,0,0,0,0,0,0,.02-.03.05-.06.07-.09,0,0,0,0,0,0l.02-.03s0,0,0,0c.03-.04.06-.08.09-.12,0,0,0,0,0,0,0,0,.01-.02.02-.03,0,0,0,0,0,0,.02-.03.05-.06.07-.09,0,0,0,0,0,0,0,0,.01-.02.02-.03,0,0,0,0,0,0,.03-.04.06-.08.1-.12,0,0,0,0,0,0,0-.01.02-.02.02-.03h0s.05-.06.07-.1h0s.02-.02.02-.03c0,0,0,0,0,0,.02-.03.05-.06.07-.09h0s.02-.02.02-.03c0,0,0,0,0,0,.03-.04.06-.08.1-.12,0,0,0,0,0,0,0,0,.02-.02.02-.03,0,0,0,0,0,0,.02-.03.05-.06.07-.09h0s.02-.02.02-.03c0,0,0,0,0,0,.03-.04.07-.08.1-.12h0s.02-.02.03-.03h0s.07-.08.1-.13h0s.07-.08.1-.13h0s.07-.09.1-.13h0s.02-.02.02-.03h0s.07-.08.1-.13h0s.07-.08.1-.13h0c.04-.05.09-.11.13-.16h0c2.29-2.75,4.86-5.28,7.68-7.54l-9.75-12.08h0Z"/>
      <path class="cls-4" d="M123.73,49.72l12.45-9.31c-3.5-4.65-7.57-8.87-12.1-12.52l-9.77,12.08h0s0,.01.01.02c.01.01.03.02.04.03,0,0,0,0,.01.01,0,0,.01.01.02.02,0,0,.01,0,.02.01,0,0,.01.01.02.02,0,0,.01,0,.02.01l.03.03s.01.01.02.02c0,0,.01,0,.02.01,0,0,.01,0,.02.02,0,0,.01,0,.02.02,0,0,.01,0,.02.02,0,0,.01,0,.02.01,0,0,.02.01.03.02,0,0,.02.01.02.02,0,0,.01.01.02.02,0,0,.01,0,.02.01,0,0,.01.01.02.02,0,0,.01,0,.02.01,0,0,.02.02.03.02,0,0,0,0,.01.01,0,0,.02.02.03.02,0,0,.01,0,.02.01,0,0,.01.01.02.02,0,0,.01,0,.02.01,0,0,.02.01.02.02,0,0,0,0,.01.01.01,0,.02.02.03.03,0,0,0,0,.01.01,0,0,.01.01.02.02,0,0,.01,0,.02.01,0,0,.02.01.02.02,0,0,0,0,.01.01.01,0,.02.02.04.03,0,0,0,0,0,0,0,0,.02.02.03.02,0,0,0,0,.01.01,0,0,.02.01.03.02,0,0,0,0,.01.01.01,0,.02.02.04.03,0,0,0,0,0,0,.01,0,.02.02.03.03,0,0,0,0,.01.01,0,0,.02.02.03.02,0,0,0,0,.01,0,.01,0,.02.02.03.03,0,0,0,0,0,0,.01,0,.03.02.04.03,0,0,0,0,0,0,.01,0,.02.02.03.02,0,0,0,0,.01,0,.01,0,.02.02.03.03,0,0,0,0,0,0,.01.01.02.02.04.03,0,0,0,0,0,0,.01,0,.02.02.03.03h0s.02.03.03.03c0,0,0,0,0,0,.02.02.05.04.08.06,0,0,0,0,0,0,.01,0,.02.02.03.03,0,0,0,0,0,0,.03.02.05.04.08.07,0,0,0,0,0,0,.01.01.02.02.03.03,0,0,0,0,0,0,.04.03.08.07.12.1,0,0,0,0,0,0,.01.01.02.02.03.03,0,0,0,0,0,0,.03.02.05.04.08.07,0,0,0,0,0,0,.01.01.02.02.04.03,0,0,0,0,0,0,.04.03.08.07.12.1,0,0,0,0,0,0,2.79,2.46,5.32,5.2,7.55,8.17h0Z"/>
      <path class="cls-2" d="M124.22,29.31c3.9,3.24,7.45,6.9,10.55,10.91l-10.85,8.11c-2.12-2.72-4.5-5.25-7.09-7.53l-.1-.09h0s-.02-.02-.02-.02h0s0,0,0,0h0s-.09-.08-.09-.08h0s-.03-.02-.03-.02l-.1-.08h0s-.03-.03-.03-.03l-.05-.04-.02-.02h0s-.01-.01-.01-.01l-.03-.02-.04-.03-.03-.03-.02-.02-.06-.05h0s-.04-.03-.04-.03h0s-.04-.04-.04-.04h0s-.04-.03-.04-.03h0s-.03-.03-.03-.03h-.01s0-.02,0-.02l-.04-.05-.11-.08h0s-.05-.04-.05-.04h0s-.01,0-.02-.01l-.04-.03h0s-.06-.05-.06-.05l8.51-10.52M124.08,27.9l-9.77,12.08s0,0,0,0c0,0,0,0,.01,0,.01.01.03.02.04.03,0,0,0,0,.01.01,0,0,.01.01.02.02,0,0,.01,0,.02.01,0,0,.01.01.02.02,0,0,.01,0,.02.01.01,0,.02.02.03.03,0,0,.01.01.02.02,0,0,.01,0,.02.01,0,0,.01,0,.02.02,0,0,.01,0,.02.02,0,0,.01,0,.02.02,0,0,.01,0,.02.01,0,0,.02.01.03.02,0,0,.02.01.02.02,0,0,.01.01.02.02,0,0,.01,0,.02.01,0,0,.01.01.02.02,0,0,.01,0,.02.01,0,0,.02.02.03.02,0,0,0,0,.02.01,0,0,.02.02.03.02,0,0,.01,0,.02.01,0,0,.01.01.02.02,0,0,.01,0,.02.01,0,0,.02.01.02.02,0,0,0,0,.01.01.01,0,.02.02.03.03,0,0,0,0,.01.01,0,0,.01.01.02.02,0,0,.01,0,.02.01,0,0,.02.01.02.02,0,0,0,0,.01.01.01,0,.02.02.04.03,0,0,0,0,0,0,0,0,.02.02.03.02,0,0,0,0,.01.01,0,0,.02.01.03.02,0,0,0,0,.01.01.01,0,.02.02.04.03,0,0,0,0,0,0,.01,0,.02.02.03.03,0,0,0,0,.01.01,0,0,.02.02.03.02,0,0,0,0,.01,0,.01,0,.02.02.03.03,0,0,0,0,0,0,.01,0,.03.02.04.03,0,0,0,0,0,0,.01,0,.02.02.03.02,0,0,0,0,.01,0,.01,0,.02.02.03.03,0,0,0,0,0,0,.01.01.02.02.04.03,0,0,0,0,0,0,.01,0,.02.02.03.03,0,0,0,0,0,0,.01,0,.02.02.03.03,0,0,0,0,0,0,.02.02.05.04.08.06,0,0,0,0,0,0,.01,0,.02.02.03.03,0,0,0,0,0,0,.03.02.05.04.08.07,0,0,0,0,0,0,.01.01.02.02.03.03,0,0,0,0,0,0,.04.03.08.07.11.1,0,0,0,0,0,0,.01.01.02.02.03.03,0,0,0,0,0,0,.03.02.05.04.08.07,0,0,0,0,0,0,.01.01.02.02.04.03,0,0,0,0,0,0,.04.03.08.07.12.1,0,0,0,0,0,0,2.79,2.46,5.32,5.2,7.55,8.17l12.45-9.31c-3.5-4.65-7.57-8.87-12.1-12.52h0Z"/>
      <path class="cls-4" d="M134.64,82.29h15.54c-.01-5.82-.75-11.63-2.19-17.27l-15.06,3.82h0s0,.02,0,.02c0,.02,0,.04.01.05,0,0,0,.01,0,.02,0,0,0,.02,0,.03,0,0,0,.01,0,.02,0,0,0,.02,0,.03,0,0,0,.01,0,.02v.04s.01.02.02.02c0,0,0,.02,0,.02,0,0,0,.02,0,.02,0,0,0,.02,0,.02,0,0,0,.01,0,.02,0,0,0,.01,0,.02,0,0,0,.02,0,.03,0,.01,0,.02,0,.03,0,0,0,.02,0,.03,0,0,0,.01,0,.02,0,0,0,.02,0,.03,0,0,0,.01,0,.02,0,.01,0,.02,0,.04,0,0,0,.01,0,.02,0,.01,0,.02,0,.04,0,0,0,.01,0,.02,0,0,0,.02,0,.03,0,0,0,.01,0,.02,0,0,0,.02,0,.03,0,0,0,.01,0,.02,0,.01,0,.03.01.04,0,0,0,.01,0,.02,0,0,0,.02,0,.03,0,0,0,.01,0,.02,0,.01,0,.02,0,.03,0,0,0,.01,0,.02,0,.01,0,.03.01.05,0,0,0,0,0,.01,0,.01,0,.02,0,.03,0,0,0,.01,0,.02,0,.01,0,.02,0,.03,0,0,0,.01,0,.02,0,.01,0,.03.01.05,0,0,0,0,0,0,0,.01,0,.03,0,.04,0,0,0,.01,0,.02,0,.01,0,.02,0,.03,0,0,0,0,0,.01,0,.01,0,.03,0,.04,0,0,0,0,0,0,0,.01,0,.03.01.05,0,0,0,0,0,.01,0,.01,0,.02,0,.04,0,0,0,0,0,.01,0,.01,0,.03,0,.04,0,0,0,0,0,0,0,.02,0,.03.01.05,0,0,0,0,0,0,0,.01,0,.03,0,.04h0s0,.04,0,.05c0,0,0,0,0,0,0,.03.01.07.02.1,0,0,0,0,0,.01,0,.01,0,.03,0,.04,0,0,0,0,0,0,0,.03.01.07.02.1,0,0,0,0,0,0,0,.02,0,.03,0,.04,0,0,0,0,0,0,.01.05.02.1.03.15,0,0,0,0,0,0,0,.02,0,.03,0,.05,0,0,0,0,0,0,0,.03.01.07.02.1,0,0,0,0,0,0,0,.02,0,.03.01.05,0,0,0,0,0,0,.01.05.02.1.03.15,0,0,0,0,0,0,.76,3.64,1.15,7.35,1.16,11.07h0Z"/>
      <path class="cls-2" d="M147.26,66.24c1.19,4.93,1.83,9.99,1.91,15.06h-13.54c-.07-3.45-.46-6.9-1.17-10.28l-.03-.13h0s0-.03,0-.03h0s0,0,0,0h0s-.02-.12-.02-.12h0s0-.04,0-.04l-.03-.13h0s0-.05,0-.05v-.06s-.02-.03-.02-.03h0s0-.02,0-.02v-.04s-.02-.05-.02-.05v-.04s-.01-.02-.01-.02l-.02-.08h0s-.01-.05-.01-.05h0s-.01-.06-.01-.06h0s-.01-.05-.01-.05h0s0-.04,0-.04v-.02s0-.01,0-.01v-.06s-.05-.13-.05-.13h0s-.01-.06-.01-.06h0s0-.01,0-.02v-.05s-.01,0-.01,0l-.02-.07,13.12-3.33M147.98,65.02l-15.06,3.82s0,0,0,.01c0,0,0,.01,0,.01,0,.02,0,.04.01.05,0,0,0,.01,0,.02,0,0,0,.02,0,.03,0,0,0,.01,0,.02,0,0,0,.02,0,.03,0,0,0,.01,0,.02,0,.01,0,.03.01.04,0,0,0,.02,0,.02,0,0,0,.02,0,.02,0,0,0,.02,0,.02,0,0,0,.02,0,.02,0,0,0,.01,0,.02,0,0,0,.01,0,.02,0,0,0,.02,0,.03,0,.01,0,.02,0,.03,0,0,0,.02,0,.03,0,0,0,.01,0,.02,0,0,0,.02,0,.03,0,0,0,.01,0,.02,0,.01,0,.02,0,.04,0,0,0,.01,0,.02,0,.01,0,.02,0,.04,0,0,0,.01,0,.02,0,0,0,.02,0,.03,0,0,0,.01,0,.02,0,0,0,.02,0,.03,0,0,0,.01,0,.02,0,.01,0,.03.01.04,0,0,0,.01,0,.02,0,0,0,.02,0,.03,0,0,0,.01,0,.02,0,.01,0,.02,0,.03,0,0,0,.01,0,.02,0,.01,0,.03.01.05,0,0,0,0,0,.01,0,.01,0,.02,0,.03,0,0,0,.01,0,.02,0,.01,0,.02,0,.03,0,0,0,.01,0,.02,0,.01,0,.03.01.05,0,0,0,0,0,0,0,.01,0,.03.01.04,0,0,0,.01,0,.02,0,.01,0,.02,0,.03,0,0,0,0,0,.01,0,.02,0,.03,0,.04,0,0,0,0,0,0,0,.01,0,.03.01.05,0,0,0,0,0,.01,0,.01,0,.02,0,.04,0,0,0,0,0,.01,0,.01,0,.03,0,.04,0,0,0,0,0,0,0,.02,0,.03.01.05,0,0,0,0,0,0,0,.01,0,.03,0,.04,0,0,0,0,0,.01,0,.01,0,.03,0,.04,0,0,0,0,0,0,0,.03.01.07.02.1,0,0,0,0,0,.01,0,.01,0,.03,0,.04,0,0,0,0,0,0,0,.03.01.07.02.1,0,0,0,0,0,0,0,.02,0,.03,0,.04,0,0,0,0,0,0,.01.05.02.1.03.15,0,0,0,0,0,0,0,.02,0,.03,0,.05,0,0,0,0,0,0,0,.03.01.07.02.1,0,0,0,0,0,0,0,.02,0,.03.01.05,0,0,0,0,0,0,.01.05.02.1.03.15,0,0,0,0,0,0,.76,3.64,1.15,7.35,1.16,11.07h15.54c-.01-5.82-.75-11.63-2.19-17.27h0Z"/>
      <path class="cls-4" d="M131.75,65.13l14.76-4.88c-1.84-5.52-4.37-10.81-7.51-15.71l-13.09,8.36h0s0,.02,0,.02c0,.02.02.03.03.05,0,0,0,0,0,.01,0,0,0,.02.01.02,0,0,0,.01.01.02,0,0,0,.01.01.02,0,0,0,.01.01.02l.02.04s0,.01.01.02c0,0,0,.01.01.02,0,0,0,.01.01.02,0,0,0,.01.01.02,0,0,0,.01.01.02,0,0,0,.01.01.02,0,0,.01.02.02.03,0,0,.01.02.02.03,0,0,0,.01.01.02,0,0,0,.01.01.02,0,0,0,.02.01.02,0,0,0,.01.01.02,0,.01.01.02.02.03,0,0,0,.01.01.02,0,.01.01.02.02.03,0,0,0,.01.01.02,0,0,0,.02.01.02,0,0,0,.01.01.02,0,0,.01.02.02.03,0,0,0,0,0,.01,0,.01.02.03.02.04,0,0,0,.01,0,.02,0,0,0,.02.02.02,0,0,0,.01.01.02,0,0,.01.02.02.03,0,0,0,0,0,.01,0,.01.02.03.02.04,0,0,0,0,0,.01,0,.01.01.02.02.03,0,0,0,0,0,.01,0,.01.01.02.02.03,0,0,0,0,0,.01,0,.01.02.03.02.04,0,0,0,0,0,0,0,.01.02.03.02.04,0,0,0,0,0,.01,0,0,.01.02.02.03,0,0,0,0,0,.01,0,.01.01.02.02.04,0,0,0,0,0,0,0,.01.02.03.03.04,0,0,0,0,0,0,0,.01.01.02.02.03,0,0,0,0,0,.01,0,.01.01.02.02.04,0,0,0,0,0,0,0,.01.02.03.03.04,0,0,0,0,0,0,0,.01.01.02.02.03h0s.01.03.02.04c0,0,0,0,0,0,.02.03.03.06.05.08,0,0,0,0,0,.01,0,.01.01.02.02.03,0,0,0,0,0,0,.02.03.03.06.05.09,0,0,0,0,0,0,0,.01.02.03.02.04,0,0,0,0,0,0,.03.04.05.09.08.13,0,0,0,0,0,0,0,.01.02.03.02.04,0,0,0,0,0,0,.02.03.03.06.05.09,0,0,0,0,0,0,0,.01.02.03.03.04,0,0,0,0,0,0,.03.05.05.09.08.14,0,0,0,0,0,0,1.87,3.22,3.4,6.62,4.58,10.15h0Z"/>
      <path class="cls-2" d="M138.68,45.92c2.68,4.31,4.88,8.91,6.55,13.69l-12.86,4.26c-1.15-3.25-2.6-6.4-4.34-9.39l-.07-.11h0s-.01-.02-.01-.02h0s0,0,0,0h0s-.06-.11-.06-.11h0s-.02-.03-.02-.03l-.07-.11h0s-.02-.04-.02-.04l-.03-.06-.02-.02h0s0-.02,0-.02l-.02-.03-.03-.04-.02-.03v-.02s-.06-.07-.06-.07h0s-.02-.04-.02-.04h0s-.03-.05-.03-.05h0s-.02-.04-.02-.04h0s-.02-.04-.02-.04v-.02s-.02,0-.02,0l-.02-.06-.08-.11h0s-.03-.06-.03-.06h0s0-.01-.01-.02l-.03-.04h0s-.04-.07-.04-.07l11.41-7.28M138.99,44.54l-13.09,8.36s0,0,0,0c0,0,0,0,0,.01.01.02.02.03.03.05,0,0,0,0,0,.01,0,0,.01.02.01.02,0,0,0,.01.01.02,0,0,0,.01.01.02,0,0,0,.01.01.02,0,.01.02.02.02.04,0,0,0,.01.01.02,0,0,0,.01.01.02,0,0,0,.01.01.02,0,0,0,.01.01.02,0,0,0,.01.01.02,0,0,0,.01.01.02,0,0,.01.02.02.03,0,0,.01.02.02.03,0,0,0,.01.01.02,0,0,0,.01.01.02,0,0,0,.02.01.02,0,0,0,.01.01.02,0,.01.01.02.02.03,0,0,0,.01.01.02,0,.01.01.02.02.03,0,0,0,.01.01.02,0,0,0,.02.01.02,0,0,0,.01.01.02,0,0,.01.02.02.03,0,0,0,0,0,.01,0,.01.02.03.02.04,0,0,0,.01,0,.02,0,0,0,.02.02.02,0,0,0,.01.01.02,0,0,.01.02.02.03,0,0,0,0,0,.01,0,.01.02.03.02.04,0,0,0,0,0,.01,0,.01.01.02.02.03,0,0,0,0,0,.01,0,.01.01.02.02.03,0,0,0,0,0,.01,0,.01.02.03.02.04,0,0,0,0,0,0,0,.01.02.03.02.04,0,0,0,0,0,.01,0,0,.01.02.02.03,0,0,0,0,0,.01,0,.01.01.02.02.04,0,0,0,0,0,0,0,.01.02.03.03.04,0,0,0,0,0,0,0,.01.01.02.02.03,0,0,0,0,0,.01,0,.01.01.02.02.04,0,0,0,0,0,0,0,.01.02.03.03.04,0,0,0,0,0,0,0,.01.01.02.02.04,0,0,0,0,0,.01,0,.01.01.02.02.03,0,0,0,0,0,0,.02.03.03.06.05.08,0,0,0,0,0,.01,0,.01.01.02.02.03,0,0,0,0,0,0,.02.03.03.06.05.09,0,0,0,0,0,0,0,.01.02.03.02.04,0,0,0,0,0,0,.03.04.05.09.08.13,0,0,0,0,0,0,0,.01.01.03.02.04,0,0,0,0,0,0,.02.03.03.06.05.09,0,0,0,0,0,0,0,.01.02.03.03.04,0,0,0,0,0,0,.03.05.05.09.08.14,0,0,0,0,0,0,1.87,3.22,3.4,6.62,4.58,10.15l14.76-4.88c-1.84-5.52-4.37-10.81-7.51-15.71h0Z"/>
      <path class="cls-4" d="M111.16,37.69l8.91-12.74c-4.78-3.33-9.96-6.05-15.41-8.1l-5.5,14.53h0s.01,0,.01,0c.02,0,.03.01.05.02,0,0,.01,0,.02,0,0,0,.02,0,.03,0,0,0,.01,0,.02,0,0,0,.02,0,.02,0,0,0,.01,0,.02,0l.04.02s.02,0,.02,0c0,0,.01,0,.02,0,0,0,.01,0,.02,0,0,0,.01,0,.02,0,0,0,.01,0,.02,0,0,0,.01,0,.02,0,0,0,.02,0,.03.01,0,0,.02,0,.03.01,0,0,.02,0,.02,0,0,0,.01,0,.02,0,0,0,.02,0,.03,0,0,0,.01,0,.02,0,.01,0,.02,0,.03.01,0,0,.01,0,.02,0,.01,0,.02,0,.03.01,0,0,.01,0,.02,0,0,0,.02,0,.03.01,0,0,.01,0,.02,0,0,0,.02,0,.03.01,0,0,.01,0,.02,0,.01,0,.03.01.04.02,0,0,.01,0,.02,0,0,0,.02,0,.03.01,0,0,.01,0,.02,0,0,0,.02,0,.03.01,0,0,.01,0,.02,0,.01,0,.03.01.04.02,0,0,0,0,.01,0,.01,0,.02,0,.03.01,0,0,.01,0,.02,0,.01,0,.02,0,.03.01,0,0,.01,0,.02,0,.01,0,.03.01.04.02,0,0,0,0,0,0,.01,0,.03.01.04.02,0,0,0,0,.01,0,0,0,.02,0,.03.01,0,0,0,0,.01,0,.01,0,.03.01.04.02,0,0,0,0,0,0,.01,0,.03.01.05.02,0,0,0,0,.01,0,.01,0,.02,0,.04.01,0,0,0,0,.01,0,.01,0,.03.01.04.02,0,0,0,0,0,0,.02,0,.03.01.05.02,0,0,0,0,0,0,.01,0,.03.01.04.02h.01s.02.01.04.02c0,0,0,0,0,0,.03.01.06.03.09.04,0,0,0,0,.01,0,.01,0,.02.01.04.02,0,0,0,0,0,0,.03.01.06.03.09.04,0,0,0,0,0,0,.01,0,.03.01.04.02,0,0,0,0,0,0,.05.02.09.04.14.06,0,0,0,0,0,0,.02,0,.03.01.04.02,0,0,0,0,0,0,.03.01.06.03.1.04,0,0,0,0,0,0,.02,0,.03.01.05.02,0,0,0,0,0,0,.05.02.1.04.14.06,0,0,0,0,0,0,3.42,1.46,6.68,3.27,9.73,5.4h0Z"/>
      <path class="cls-2" d="M105.23,18.15c4.72,1.85,9.23,4.22,13.44,7.06l-7.76,11.1c-2.86-1.92-5.92-3.57-9.09-4.93l-.12-.05h0s-.03-.01-.03-.01h0s0,0,0,0h0s-.11-.05-.11-.05h0s-.03-.01-.03-.01l-.12-.05h0s-.04-.02-.04-.02l-.06-.03h-.03s0,0,0,0h-.02s-.03-.02-.03-.02l-.05-.02-.03-.02h-.02s-.08-.04-.08-.04h0s-.04-.02-.04-.02h0s-.05-.02-.05-.02h0s-.04-.02-.04-.02h0s-.03-.02-.03-.02h-.02s0-.01,0-.01l-.05-.03-.13-.04h0s-.06-.03-.06-.03h0s-.01,0-.02,0l-.05-.02h0s-.07-.03-.07-.03l4.79-12.66M104.65,16.86l-5.5,14.53s0,0,0,0c0,0,.01,0,.01,0,.02,0,.03.01.05.02,0,0,.01,0,.02,0,0,0,.02,0,.03,0,0,0,.01,0,.02,0,0,0,.02,0,.02,0,0,0,.01,0,.02,0,.01,0,.03.01.04.02,0,0,.02,0,.02,0,0,0,.01,0,.02,0,0,0,.01,0,.02,0,0,0,.01,0,.02,0,0,0,.01,0,.02,0,0,0,.01,0,.02,0,0,0,.02,0,.03.01,0,0,.02,0,.03.01,0,0,.02,0,.02,0,0,0,.01,0,.02,0,0,0,.02,0,.03,0,0,0,.01,0,.02,0,.01,0,.02,0,.03.01,0,0,.01,0,.02,0,.01,0,.02,0,.03.01,0,0,.01,0,.02,0,0,0,.02,0,.03.01,0,0,.01,0,.02,0,0,0,.02,0,.03.01,0,0,.01,0,.02,0,.01,0,.03.01.04.02,0,0,.01,0,.02,0,0,0,.02,0,.03.01,0,0,.01,0,.02,0,0,0,.02,0,.03.01,0,0,.01,0,.02,0,.01,0,.03.01.04.02,0,0,0,0,.01,0,.01,0,.02,0,.03.01,0,0,.01,0,.02,0,.01,0,.02,0,.03.01,0,0,.01,0,.02,0,.01,0,.03.01.04.02,0,0,0,0,0,0,.01,0,.03.01.04.02,0,0,0,0,.01,0,0,0,.02,0,.03.01,0,0,0,0,.01,0,.01,0,.03.01.04.02,0,0,0,0,0,0,.01,0,.03.01.05.02,0,0,0,0,.01,0,.01,0,.02,0,.04.01,0,0,0,0,.01,0,.01,0,.03.01.04.02,0,0,0,0,0,0,.02,0,.03.01.05.02,0,0,0,0,0,0,.01,0,.03.01.04.02,0,0,0,0,.01,0,.01,0,.02,0,.04.01,0,0,0,0,0,0,.03.01.06.03.09.04,0,0,0,0,.01,0,.01,0,.02.01.04.02,0,0,0,0,0,0,.03.01.06.03.09.04,0,0,0,0,0,0,.01,0,.03.01.04.02,0,0,0,0,0,0,.05.02.09.04.14.06,0,0,0,0,0,0,.02,0,.03.01.04.02,0,0,0,0,0,0,.03.01.06.03.1.04,0,0,0,0,0,0,.02,0,.03.01.05.02,0,0,0,0,0,0,.05.02.1.04.14.06,0,0,0,0,0,0,3.42,1.46,6.68,3.27,9.73,5.4l8.91-12.74c-4.78-3.33-9.96-6.05-15.41-8.1h0Z"/>
      <path class="cls-4" d="M95.47,30.16l4.36-14.92c-5.59-1.62-11.38-2.54-17.2-2.74l-.56,15.52h.01s.01,0,.01,0c.02,0,.04,0,.06,0,0,0,.01,0,.02,0,0,0,.02,0,.03,0,0,0,.01,0,.02,0,0,0,.02,0,.03,0,0,0,.01,0,.02,0h.04s.02,0,.02,0c0,0,.02,0,.02,0,0,0,.02,0,.02,0,0,0,.02,0,.02,0,0,0,.02,0,.02,0,0,0,.02,0,.02,0,.01,0,.02,0,.03,0,.01,0,.02,0,.03,0,0,0,.02,0,.03,0,0,0,.01,0,.02,0,0,0,.02,0,.03,0,0,0,.01,0,.02,0,.01,0,.02,0,.04,0,0,0,.01,0,.02,0,.01,0,.02,0,.04,0,0,0,.01,0,.02,0,.01,0,.02,0,.03,0,0,0,.01,0,.02,0,.01,0,.02,0,.03,0,0,0,.01,0,.02,0,.02,0,.03,0,.05,0,0,0,.01,0,.02,0,.01,0,.02,0,.03,0,0,0,.01,0,.02,0,.01,0,.02,0,.03,0,0,0,.01,0,.02,0,.02,0,.03,0,.05,0,0,0,0,0,.01,0,.01,0,.02,0,.04,0,0,0,.01,0,.02,0,.01,0,.02,0,.03,0,0,0,.01,0,.02,0,.02,0,.03,0,.05,0,0,0,0,0,0,0,.01,0,.03,0,.04,0,0,0,.01,0,.02,0,.01,0,.02,0,.03,0,0,0,0,0,.01,0,.02,0,.03,0,.04,0,0,0,0,0,0,0,.02,0,.03,0,.05,0,0,0,0,0,.01,0,.01,0,.02,0,.04,0,0,0,0,0,.01,0,.01,0,.03,0,.04,0,0,0,0,0,0,0,.02,0,.03,0,.05,0,0,0,0,0,0,0,.01,0,.03,0,.04,0h.01s.03,0,.04,0c0,0,0,0,0,0,.03,0,.07,0,.1,0,0,0,0,0,.01,0,.01,0,.03,0,.04,0,0,0,0,0,0,0,.03,0,.07,0,.1,0,0,0,0,0,0,0,.02,0,.03,0,.04,0,0,0,0,0,0,0,.05,0,.1,0,.15.01,0,0,0,0,0,0,.02,0,.03,0,.05,0,0,0,0,0,0,0,.04,0,.07,0,.1,0,0,0,0,0,0,0,.02,0,.03,0,.05,0,0,0,0,0,0,0,.05,0,.1,0,.16.01,0,0,0,0,0,0,3.71.29,7.38.96,10.95,2h0Z"/>
      <path class="cls-2" d="M83.6,13.54c5.07.24,10.1,1.05,14.99,2.39l-3.8,13c-3.33-.9-6.75-1.49-10.19-1.76h-.13s0-.01,0-.01h-.03s0,0,0,0h0s0,0,0,0h-.12s0,0,0,0h-.03s-.13-.01-.13-.01h0s-.04,0-.04,0h-.06s-.03,0-.03,0h0s-.02,0-.02,0h-.04s-.05,0-.05,0h-.04s-.03,0-.03,0h-.08s0,0,0,0h-.05s0,0,0,0h-.06s0,0,0,0h-.05s0,0,0,0h-.04s-.02,0-.02,0h-.01s-.06-.02-.06-.02h-.14s0,0,0,0h-.06s0,0,0,0c0,0-.01,0-.02,0h-.05s0,0,0,0h-.08s.49-13.53.49-13.53M82.64,12.5l-.56,15.52s0,0,.01,0c0,0,.01,0,.01,0,.02,0,.04,0,.06,0,0,0,.01,0,.02,0,0,0,.02,0,.03,0,0,0,.01,0,.02,0,0,0,.02,0,.03,0,0,0,.01,0,.02,0,.01,0,.03,0,.04,0,0,0,.02,0,.02,0,0,0,.02,0,.02,0,0,0,.02,0,.02,0,0,0,.02,0,.02,0,0,0,.02,0,.02,0,0,0,.02,0,.02,0,.01,0,.02,0,.03,0,.01,0,.02,0,.03,0,0,0,.02,0,.03,0,0,0,.01,0,.02,0,0,0,.02,0,.03,0,0,0,.01,0,.02,0,.01,0,.02,0,.04,0,0,0,.01,0,.02,0,.01,0,.02,0,.04,0,0,0,.01,0,.02,0,.01,0,.02,0,.03,0,0,0,.01,0,.02,0,.01,0,.02,0,.03,0,0,0,.01,0,.02,0,.02,0,.03,0,.05,0,0,0,.01,0,.02,0,.01,0,.02,0,.03,0,0,0,.01,0,.02,0,.01,0,.02,0,.03,0,0,0,.01,0,.02,0,.02,0,.03,0,.05,0,0,0,0,0,.01,0,.01,0,.02,0,.04,0,0,0,.01,0,.02,0,.01,0,.02,0,.03,0,0,0,.01,0,.02,0,.02,0,.03,0,.05,0,0,0,0,0,0,0,.01,0,.03,0,.04,0,0,0,.01,0,.02,0,.01,0,.02,0,.03,0,0,0,0,0,.01,0,.02,0,.03,0,.04,0,0,0,0,0,0,0,.02,0,.03,0,.05,0,0,0,0,0,.01,0,.01,0,.02,0,.04,0,0,0,0,0,.01,0,.01,0,.03,0,.04,0,0,0,0,0,0,0,.02,0,.03,0,.05,0,0,0,0,0,0,0,.01,0,.03,0,.04,0,0,0,0,0,.01,0,.01,0,.03,0,.04,0,0,0,0,0,0,0,.03,0,.07,0,.1,0,0,0,0,0,.01,0,.01,0,.03,0,.04,0,0,0,0,0,0,0,.03,0,.07,0,.1,0,0,0,0,0,0,0,.02,0,.03,0,.04,0,0,0,0,0,0,0,.05,0,.1,0,.15.01,0,0,0,0,0,0,.02,0,.03,0,.05,0,0,0,0,0,0,0,.04,0,.07,0,.1,0,0,0,0,0,0,0,.02,0,.03,0,.05,0,0,0,0,0,0,0,.05,0,.1,0,.16.01,0,0,0,0,0,0,3.71.29,7.38.96,10.95,2l4.36-14.92c-5.59-1.62-11.38-2.54-17.2-2.74h0Z"/>
    </g>
  </g>
</svg>